<svg width="502" height="522" viewBox="0 0 502 522" fill="none" xmlns="http://www.w3.org/2000/svg">
<path d="M331.09 398.274C326.522 396.657 321.843 395.374 317.088 394.438L316.513 396.548C316.449 396.797 316.297 397.014 316.086 397.16C315.874 397.306 315.618 397.37 315.362 397.342L296.539 395.15C291.36 383.341 281.852 365.449 281.715 365.175C281.852 360.709 281.715 356.955 281.715 352.68C292.484 356.681 312.403 364.271 322.815 369.12C323.05 369.271 323.232 369.495 323.335 369.755C323.439 370.016 323.458 370.301 323.39 370.573C323.39 370.573 323.198 371.258 322.952 372.244C328.048 372.244 343.31 371.504 346.982 374.984C347.553 375.779 347.833 376.747 347.776 377.724C347.995 381.505 346.105 410.878 343.091 419.509C341.529 424.03 338.241 423.537 335.994 419.208C333.394 412.689 331.724 405.834 331.035 398.849C331.035 398.493 331.117 398.521 331.09 398.274ZM334.241 373.751C330.898 373.477 329.857 373.532 322.678 373.313C321.39 378.19 318.732 388.218 317.362 393.342C322.197 394.091 326.968 395.198 331.638 396.657C333.093 389.1 333.963 381.441 334.241 373.751Z" fill="#002DFF"/>
<path d="M78.9006 133.946C78.2156 132.987 79.0924 131.754 79.8322 130.795C77.7358 128.64 75.4113 126.719 72.9 125.069C68.66 122.956 64.7851 120.181 61.4194 116.849C60.022 115.396 57.3916 112.41 58.378 110.656C59.3644 108.903 61.118 108.793 63.5018 109.807C62.4696 108.723 61.6246 107.472 61.0084 106.108C60.2412 103.971 62.0496 102.244 65.9678 103.834C64.543 101.559 64.2142 99.1755 66.6254 98.0247C68.5708 97.0931 71.4204 99.3125 73.0644 100.765C76.2931 103.585 79.3231 106.625 82.1338 109.862C83.86 106.245 86.6 102.08 90.025 103.395C93.45 104.71 90.7922 110.601 89.0386 113.807L95.2584 118.109C96.1989 117.601 97.2606 117.365 98.3272 117.424C105.396 118.63 137.865 143.344 141.153 143.344C143.674 143.344 179.678 126.082 210.804 121.096C210.863 120.909 210.976 120.743 211.126 120.617C211.277 120.491 211.459 120.41 211.654 120.383C217.083 119.457 222.586 119.044 228.094 119.15C228.26 119.162 228.422 119.209 228.568 119.289C228.717 119.37 228.842 119.481 228.943 119.616H231.245C231.793 117.397 233.82 112.273 234.533 110.3C232.669 108.683 230.094 107.861 228.751 105.258C226.285 100.436 226.395 92.0515 227.08 86.6811C223.984 84.3247 223.901 80.5435 224.614 76.6801C224.888 75.1183 225.737 71.5837 227.052 70.7069C227.792 70.2137 229.354 70.7069 230.697 71.2001C232.039 68.0765 232.039 69.5013 231.491 68.2409C231.235 67.66 231.087 67.0383 231.053 66.4051C229.601 66.8435 226.587 63.9391 227.628 60.1031C228.173 58.7301 228.842 57.4095 229.628 56.1575C229.244 55.2259 228.422 54.1025 230.998 50.6775C232.107 49.4809 233.548 48.6415 235.135 48.2663H236.396C237.304 46.9466 238.64 45.9792 240.177 45.5263C242.497 44.9345 244.958 45.2792 247.027 46.4853C247.575 46.8963 248.013 47.4443 248.561 47.8279C249.801 47.0757 251.221 46.6781 252.671 46.6781C254.121 46.6781 255.541 47.0757 256.781 47.8279C257.507 48.1124 258.167 48.5408 258.722 49.0868C259.277 49.6333 259.718 50.2859 260.015 51.0063C261.357 50.543 262.782 50.3647 264.197 50.4827C265.611 50.6008 266.988 51.0123 268.235 51.6913C272.968 54.258 276.509 58.5757 278.099 63.7199C278.142 64.4956 278.142 65.2733 278.099 66.0489H278.4C282.51 65.4461 287.743 75.2005 283.551 82.7903C283.058 83.6945 282.428 84.5439 281.825 85.5303C280.071 88.2703 280.756 89.0923 276.838 92.4351C275.687 93.4215 275.496 93.3393 274.783 93.9421C274.071 94.5449 274.345 94.2435 273.934 95.7779C273.71 96.6816 273.308 97.5325 272.753 98.2803C272.198 99.0281 271.5 99.6583 270.701 100.135C270.408 102.815 269.266 105.331 267.44 107.313C266.862 107.961 266.187 108.515 265.44 108.957C265.239 109.071 265.013 109.137 264.782 109.149C263.96 114.246 262.946 120.876 262.508 123.699L264.947 125.014C268.136 126.298 271.239 127.79 274.235 129.48C274.47 129.643 274.637 129.886 274.701 130.165C277.605 131.699 280.345 133.152 281.907 134.083C303.662 146.989 365.45 232.066 366.08 235.956C366.149 236.18 366.149 236.418 366.08 236.641C365.194 238.055 364.115 239.336 362.874 240.45C363.256 241.149 363.716 241.799 364.244 242.395C369.724 245.985 377.944 251.328 382.355 256.095C382.665 256.372 382.897 256.724 383.029 257.116C383.161 257.509 383.188 257.929 383.108 258.335C383.028 258.742 382.843 259.121 382.571 259.436C382.3 259.749 381.952 259.986 381.561 260.123C380.739 260.397 380.601 260.315 375.258 257.383C376.727 258.671 377.928 260.235 378.793 261.986C379.149 263.493 377.779 264.37 376.053 264.096C375.082 263.841 374.158 263.434 373.313 262.891C373.808 263.653 374.07 264.544 374.07 265.453C374.07 266.361 373.808 267.252 373.313 268.014C370.573 271.467 363.394 260.589 359.613 257.904C358.079 259.849 355.997 264.398 352.681 263.192C349.804 262.123 352.955 255.794 352.681 253.958C351.566 252.888 350.376 251.899 349.119 250.999C347.006 252.565 344.589 253.677 342.023 254.26C337.502 254.26 290.319 206.638 286.73 202.83C288.017 214.941 294.511 266.918 293.141 277.029C292.511 281.605 281.524 282.262 276.893 282.509C278.29 315.389 279.222 365.202 279.469 365.723C286.73 381.368 288.702 385.643 291.141 390.383C295.58 398.877 314.267 430.222 316.376 437.346C316.678 438.47 316.705 438.908 315.527 440.991C319.058 444.703 322.335 448.649 325.336 452.8C326.843 455.54 320.377 481.077 315.801 490.119C314.76 492.146 313.061 495.27 310.787 495.19C303.937 494.941 303.964 470.336 304.156 463.459C304.157 463.246 304.235 463.043 304.375 462.883C303.133 461.029 301.779 459.255 300.32 457.568C299.449 458.168 298.533 458.698 297.58 459.157C296.648 459.568 295.607 458.855 294.84 458.225C285.716 451.046 236.505 389.725 225.956 360.791C221.161 347.584 214.777 329.336 212.969 316.403C211.863 308.226 211.761 299.945 212.667 291.743C212.667 291.626 212.622 291.515 212.539 291.432C212.457 291.35 212.346 291.304 212.229 291.304C212.112 291.304 212 291.35 211.918 291.432C211.836 291.515 211.791 291.626 211.791 291.743C210.418 299.99 210.151 308.386 210.996 316.704C213.024 334.651 227.189 372.052 234.752 385.807C228.231 384.601 214.969 381.971 208.557 380.053C187.185 373.559 167.457 354.187 165.731 332.432C165.172 322.182 165.172 311.912 165.731 301.661C165.916 287.512 167.754 273.433 171.211 259.712C165.402 256.561 160.087 252.862 158.361 249.465C154.662 242.204 164.443 200.419 166.581 188.691C154.881 189.979 134.961 192.308 125.672 185.047C115.041 176.498 92.08 152.441 78.9006 133.946ZM305.636 461.952C310.568 458.965 317.472 451.868 318.514 446.306C317.39 444.881 316.212 443.566 315.116 442.087C311.403 447.754 306.772 452.764 301.416 456.91C302.92 458.506 304.33 460.189 305.636 461.952ZM87.8056 114.574C87.6641 114.484 87.561 114.343 87.5221 114.18C87.4813 114.016 87.5042 113.844 87.5864 113.698C88.5454 111.917 91.4224 105.642 89.4222 104.93C88.2714 104.491 87.2576 105.204 86.4082 106.163C85.1109 107.808 84.1021 109.661 83.4216 111.643C83.3713 111.803 83.2776 111.948 83.1496 112.06C83.024 112.172 82.8691 112.247 82.7047 112.279C82.5378 112.31 82.3665 112.295 82.2065 112.236C82.0491 112.177 81.9101 112.076 81.805 111.944C79.065 108.903 72.6534 101.97 69.0366 100.107C66.2966 98.6823 65.639 101.313 72.352 107.45C73.8934 108.626 75.3749 109.879 76.7908 111.204C76.8685 111.312 76.9118 111.441 76.9118 111.574C76.9118 111.707 76.8685 111.836 76.7908 111.944C76.7908 112.656 76.2154 113.451 75.229 112.711C72.8472 110.62 70.3289 108.689 67.694 106.93C66.3489 105.974 64.7851 105.371 63.1456 105.176C63.9676 107.697 71.6122 114.547 72.2698 115.314C72.4775 115.501 72.6056 115.762 72.6235 116.042C72.6395 116.321 72.5483 116.597 72.3654 116.809C72.1806 117.02 71.9226 117.152 71.6441 117.175C71.3631 117.198 71.0871 117.11 70.8724 116.931C67.831 114.958 62.5154 110.355 60.6796 111.04C58.8438 111.725 64.2964 116.821 65.6664 118.027C73.5302 124.849 71.5026 120.465 80.5994 129.727C84.5584 125.389 89.1049 121.626 94.1076 118.547L87.8056 114.574ZM206.859 245.629C207.324 241.847 207.9 237.765 208.612 233.518L207.434 231.956C201.954 224.914 200.31 213.708 200.831 204.912C197.899 217.763 195.57 230.394 193.789 242.943L206.859 245.629ZM247.602 151.811C254.809 146.331 266.399 136.878 273.139 130.412L262.179 124.932C252.114 134.332 243.499 145.173 236.615 157.099C226.086 176.439 218.277 197.138 213.407 218.612L252.48 163.346L247.383 152.77C247.314 152.607 247.301 152.427 247.34 152.256C247.379 152.083 247.47 151.928 247.602 151.811ZM229.08 120.739C228.916 121.041 227.025 125.069 224.148 132.11C224.148 132.412 224.669 139.262 224.915 141.673C228.413 140.287 231.71 138.444 234.724 136.193C234.122 133.809 231.409 122.986 231.217 120.548L229.08 120.739ZM238.807 150.167C238.615 149.674 238.423 149.016 238.204 148.249L236.368 149.208C235.327 149.893 235.738 147.811 234.807 153.839C234.807 154.852 234.533 155.976 234.478 157.209C235.738 154.935 237.3 152.496 238.78 150.167H238.807ZM240.341 147.865C245.518 140.523 251.411 133.713 257.932 127.535L237.3 136.494C238.095 138.385 239.245 144.166 240.314 147.865H240.341ZM219.271 163.922C222.011 156.442 224.121 148.085 225.162 145.893C225.1 145.209 225.1 144.521 225.162 143.838C224.764 143.985 224.351 144.077 223.929 144.112C223.664 144.115 223.408 144.022 223.207 143.85C223.004 143.68 222.872 143.441 222.833 143.18C222.614 142.276 222.257 137.7 222.203 136.686C214.231 156.81 207.578 177.431 202.283 198.418C217.764 165.484 215.38 175.019 219.243 163.922H219.271ZM196.611 216.228C202.858 186.28 213.846 148.934 226.34 121.26C221.75 121.262 217.17 121.629 212.64 122.356C210.311 143.18 212.256 142.468 210.695 143.29C209.133 144.112 199.735 147.893 198.337 148.468C198.474 150.578 196.501 210.913 196.584 216.228H196.611ZM228.148 72.4605C226.719 75.5776 226.216 79.039 226.696 82.4341C226.92 83.2985 227.377 84.0836 228.02 84.7023C228.664 85.3216 229.466 85.75 230.338 85.9403C231.208 86.1306 232.117 86.0753 232.959 85.7804C233.802 85.4855 234.544 84.9624 235.108 84.2699C236.416 81.516 237.398 78.6195 238.04 75.6389C237.3 74.6799 229.409 72.7619 228.148 72.4605ZM265.851 99.8605C266.851 99.4047 267.876 99.0027 268.92 98.6549C269.621 98.367 270.244 97.9226 270.746 97.3557C271.249 96.7887 271.614 96.1147 271.815 95.3844C272.016 94.6545 272.048 93.8883 271.906 93.144C271.765 92.4002 271.456 91.6983 271.002 91.0925C269.276 89.6403 267.714 89.7225 266.289 91.8871C265.385 93.5585 265.412 93.6955 265.001 93.8599C264.882 93.9117 264.755 93.9381 264.627 93.9366C264.499 93.9352 264.371 93.9063 264.255 93.852C264.138 93.7977 264.033 93.7184 263.951 93.6208C263.867 93.5232 263.805 93.4086 263.768 93.2845C263.362 91.5698 263.298 89.7913 263.577 88.0511C263.905 86.1605 263.96 77.7761 263.905 77.5021C263.104 77.9241 262.207 78.1229 261.302 78.0775C256.343 77.8857 255.357 75.3375 253.384 73.2551C251.11 73.4743 250.644 74.5703 248.068 73.2551C246.863 72.5691 245.755 71.7212 244.78 70.7343C243.993 71.0566 243.232 71.4417 242.506 71.8851C240.864 72.6747 239.012 72.9174 237.222 72.5771C235.432 72.2368 233.797 71.3316 232.56 69.9945C232.258 70.5699 231.984 71.1453 231.738 71.7481C234.256 72.5298 236.626 73.7239 238.752 75.2827C239.218 75.8581 238.533 78.9817 238.369 79.7215C240.663 80.0105 242.885 80.7259 244.917 81.8313C245.328 80.4065 246.232 77.7487 247.657 77.0089C248.086 76.8779 248.543 76.8779 248.972 77.0089C251.438 77.3925 260.289 80.0503 261.357 81.5025C262.289 82.5163 259.631 90.3527 258.809 91.6405C255.658 96.5177 246.424 95.0929 244.698 89.3937C244.271 87.4812 244.271 85.4974 244.698 83.5849C243.903 83.5849 241.52 82.7355 241.246 82.6533C239.355 86.9003 238.807 87.1469 236.615 91.7227C236.916 91.9693 237.41 92.3803 237.821 92.6543C239.766 93.9421 240.177 93.7229 240.067 94.2709C240.036 94.3795 239.965 94.4732 239.869 94.5335C239.773 94.5942 239.658 94.6177 239.547 94.5997C238.396 94.4353 237.273 94.1225 236.204 93.6681C235.564 93.4295 235.037 92.9602 234.724 92.3529C233.957 90.6267 238.204 84.1329 239.876 82.1875C239.547 82.1875 238.78 81.6395 238.204 81.3381C237.437 84.4069 236.916 86.8181 233.957 88.0237C233.101 88.3465 232.19 88.4935 231.276 88.4561C230.363 88.4183 229.468 88.1966 228.642 87.8045C228.203 92.6269 228.285 100.463 230.587 104.738C231.765 106.957 234.67 107.807 236.533 109.642C237.081 110.163 236.725 110.903 236.533 111.697C233.491 120.164 233.437 120.137 233.601 121.233C234.407 125.781 235.532 130.268 236.971 134.659C237.656 134.357 245.356 130.275 260.426 124.411C260.891 121.315 263.385 104.793 264.179 101.751C264.125 100.683 264.262 100.436 265.851 99.7235V99.8605ZM246.671 88.6813C247.548 91.6679 251.685 92.9557 254.644 92.1337C257.603 91.3117 257.795 89.8047 259.193 86.2427C259.848 84.8822 260.3 83.4325 260.535 81.9409C259.631 80.9545 249.74 78.9269 248.507 78.7351C246.778 81.6938 246.127 85.1607 246.671 88.5443V88.6813ZM353.886 253.191C354.928 254.205 353.531 257.52 353.312 260.397C353.312 260.644 353.312 261.712 353.476 261.795C354.983 262.288 356.38 260.014 357.23 258.644C358.079 257.274 358.929 255.41 360.271 255.904C363.011 257.191 369.368 265.631 371.861 266.507C373.122 264.096 365.915 257.219 365.668 256.835C365.563 256.659 365.508 256.456 365.509 256.253C365.51 256.047 365.567 255.844 365.674 255.671C365.782 255.495 365.935 255.354 366.117 255.257C366.3 255.164 366.505 255.123 366.71 255.136C367.203 255.136 367.532 255.575 368.299 256.26C370.633 258.536 373.304 260.44 376.218 261.904C373.576 258.872 370.748 256.009 367.751 253.328C367.603 253.175 367.499 252.986 367.449 252.78C367.449 252.78 368.025 251.328 369.148 251.903C370.737 252.78 378.465 257.246 380.903 258.397C381.232 258.178 381.04 257.849 380.903 257.52C377.04 252.78 368.545 247.026 363.34 243.382C362.729 242.752 362.22 242.032 361.833 241.245C358.227 244.599 354.381 247.686 350.325 250.478C351.574 251.298 352.765 252.205 353.886 253.191ZM290.127 278.098C290.73 277.714 291.168 277.358 291.251 276.865C292.758 265.685 284.373 202.337 284.51 199.843C284.51 199.697 284.54 199.552 284.597 199.417C284.652 199.283 284.736 199.161 284.841 199.058C284.946 198.956 285.07 198.876 285.207 198.822C285.341 198.769 285.487 198.744 285.634 198.747C287.031 198.747 284.565 198.747 319.472 232.175C321.774 234.34 339.365 251.163 342.297 252.287C346.325 251.985 361.477 239.902 363.943 236.093C359.175 226.449 301.361 147.098 281.359 134.96C279.825 134.028 277.194 132.576 274.317 131.042C273.322 131.98 272.251 132.832 271.112 133.59C264.755 139.618 255.905 147.126 249.192 152.77L254.425 163.155C254.505 163.292 254.546 163.448 254.546 163.607C254.546 163.765 254.505 163.921 254.425 164.059C211.928 225.024 212.558 224.339 212.284 224.339C209.56 238.427 207.865 252.693 207.215 267.028C207.215 270.891 207.215 270.563 207.05 270.289C206.886 270.015 207.05 270.48 207.05 270.48C213.681 277.714 279.304 284.454 290.127 278.098ZM138.66 187.321C151.072 189.048 165.101 186.472 167.814 186.362C169.321 179.058 172.325 172.145 176.636 166.059C176.703 165.97 176.798 165.909 176.908 165.89C177.016 165.869 177.127 165.891 177.221 165.949C177.314 166.008 177.383 166.1 177.413 166.207C177.44 166.313 177.428 166.427 177.376 166.525C175.787 169.758 170.471 183.705 169.156 187.102C169.567 188.417 156.771 241.327 160.388 248.451C163.621 254.89 182.445 263 189.24 265.329C190.583 250.074 192.779 234.908 195.816 219.9C194.885 212.009 196.09 165.1 196.447 147.756C196.458 147.554 196.524 147.36 196.64 147.195C196.757 147.03 196.917 146.902 197.104 146.824L209.407 141.646C209.462 135.134 209.875 128.631 210.64 122.164C179.924 127.48 144.14 145.043 141.153 145.071C136.824 145.071 104.657 120.411 97.9984 119.424C95.0392 118.958 82.3256 130.055 80.846 133.124C93.8336 151.263 116.658 175.101 127.234 183.348C130.641 185.626 134.575 186.994 138.66 187.321Z" fill="#002DFF"/>
<path d="M249.493 83.2013C249.527 83.0215 249.596 82.8501 249.696 82.6972C249.797 82.5437 249.927 82.4117 250.077 82.3086C250.23 82.206 250.4 82.1337 250.58 82.0964C250.758 82.059 250.943 82.0575 251.123 82.0919C251.304 82.1258 251.475 82.195 251.628 82.2957C251.781 82.3963 251.913 82.5253 252.016 82.6768C252.119 82.8282 252.192 82.9986 252.228 83.1779C252.265 83.3573 252.267 83.5421 252.233 83.7219C251.685 86.462 251.575 87.0921 250.37 87.0921C250.142 87.0926 249.918 87.0368 249.717 86.9292C249.516 86.8211 249.344 86.6652 249.221 86.4744C249.096 86.2841 249.02 86.0654 249 85.8382C248.981 85.6111 249.018 85.3829 249.109 85.1741C249.192 84.7357 249.438 83.4479 249.493 83.2013ZM241.109 101.34C239.328 101.861 237.629 101.011 237.684 100.573C237.738 100.135 237.684 100.354 240.095 99.4495C241.711 98.8467 243.492 96.7095 244.123 97.0383C244.753 97.3671 243.794 99.1208 243.575 99.4495C242.988 100.339 242.12 101.005 241.109 101.34ZM190.994 75.3101C194.583 90.3527 197.214 103.121 197.652 105.669C197.945 106.778 197.999 107.936 197.817 109.067C196.364 112.163 177.595 118.273 175.212 117.068C172.828 115.862 166.635 101.916 159.429 87.5305C155.015 87.6715 150.597 87.3502 146.25 86.5715C141.671 85.7316 137.217 84.3232 132.988 82.3793C123.727 78.1049 113.589 59.8017 112.219 50.5953C111.192 40.5998 113.308 30.5331 118.274 21.798C141.263 -18.0691 208.694 3.38515 203.214 47.6635C201.65 57.7951 197.433 67.3333 190.994 75.3101ZM174.28 107.944C174.28 108.382 174.773 108.327 177.02 107.944C181.616 107.366 186.066 105.945 190.145 103.751C192.063 102.71 192.583 102.491 192.391 102.025C192.2 101.559 191.789 101.724 188.829 102.546C188.555 102.546 180.061 105.286 177.623 106.135C174.472 107.56 174.28 107.56 174.28 107.944ZM174.773 63.3637C171.848 63.5152 168.932 62.9119 166.307 61.6101C163.868 62.7918 161.229 63.5077 158.525 63.7199C163.128 72.2961 172.472 89.7773 175.486 99.0933L187.103 95.8876C184.363 89.1471 178.308 73.3647 174.828 63.3637H174.773ZM175.732 61.0895C177.778 60.7807 179.666 59.8092 181.105 58.3246C182.546 56.8396 183.459 54.9235 183.706 52.8695C184.473 47.3895 180.966 41.2519 175.677 42.7041C172.362 43.6083 171.951 46.2387 172.526 49.5541C173.02 51.9653 174.801 58.0207 175.787 60.9799L175.732 61.0895ZM168.279 54.5135C167.987 52.7206 167.313 51.0108 166.307 49.4993C165.827 48.6754 165.126 48.0023 164.283 47.5569C163.441 47.1111 162.491 46.9108 161.539 46.9785C159.511 47.5813 158.635 51.4173 160.306 53.8285C161.914 55.9603 163.911 57.7647 166.197 59.1441C166.985 58.6828 167.61 57.9918 167.992 57.1639C168.373 56.3364 168.494 55.4113 168.334 54.5135H168.279ZM193.46 19.6882C181.185 4.91955 158.087 -0.944054 141.4 5.13875C132.335 8.25044 124.711 14.5509 119.946 22.8666C115.221 31.1786 113.201 40.7543 114.164 50.2665C115.425 58.7879 125.124 76.4883 133.646 80.4065C141.436 83.9606 149.937 85.6848 158.498 85.4481C159.429 85.4481 160.416 85.4481 160.772 86.1057C162.388 89.3937 165.348 95.7505 168.252 101.724C170.259 100.755 172.337 99.9487 174.472 99.3125C171.293 90.2157 161.265 72.3509 156.497 63.6925C152.367 64.0463 148.214 63.3294 144.441 61.6101C143.423 61.0736 142.578 60.2576 142.005 59.2572C141.434 58.2574 141.158 57.1151 141.213 55.9642C141.267 54.8139 141.651 53.703 142.313 52.7614C142.978 51.8204 143.896 51.0875 144.962 50.6501C149.209 48.5677 153.018 53.5545 155.237 57.7467C155.84 58.8427 156.525 60.1305 157.292 61.5827C159.509 61.4373 161.694 60.9854 163.786 60.2401C161.703 58.7755 159.854 57.002 158.306 54.9793C157.438 53.6691 157 52.1223 157.048 50.552C157.098 48.9812 157.632 47.4648 158.58 46.2113C159.324 45.347 160.358 44.7836 161.489 44.6271C162.619 44.4707 163.767 44.7322 164.717 45.3619C166.638 46.5411 168.174 48.2489 169.147 50.2805C170.118 52.3121 170.483 54.5813 170.197 56.8151C169.9 58.076 169.22 59.2149 168.252 60.0757C170.049 60.82 171.978 61.1932 173.924 61.1717C172.828 57.9385 171.047 52.1023 170.581 49.7185C170.288 48.3595 170.225 46.9616 170.389 45.5811C170.601 44.3965 171.152 43.298 171.974 42.4182C172.793 41.5379 173.853 40.9147 175.02 40.6217C181.678 38.7311 186.583 46.1017 185.624 52.9791C185.354 55.4437 184.295 57.7552 182.607 59.5716C180.92 61.388 178.691 62.612 176.253 63.0623C179.76 72.9263 185.24 88.8457 187.98 95.641L194.008 94.0791C190.145 74.6799 189.679 75.1457 190.227 74.8991C196.454 66.9616 200.435 57.4996 201.762 47.4991C202.408 42.5402 202.002 37.5011 200.573 32.7098C199.143 27.918 196.718 23.4813 193.46 19.6882ZM155.429 61.7471C153.511 58.2673 149.675 50.6501 145.948 52.5133C145.204 52.8138 144.553 53.3119 144.072 53.9541C143.587 54.5962 143.291 55.358 143.208 56.1575C143.263 60.9799 150.771 61.8293 155.538 61.7471H155.429ZM50.5416 73.8306C47.2401 71.8886 43.3398 71.2256 39.5815 71.9673C35.4531 72.0411 31.51 73.6916 28.5598 76.5805C25.6075 79.4695 23.8788 83.3772 23.7194 87.5031C26.2004 86.0629 29.1033 85.5209 31.9369 85.9687C38.8143 86.5715 47.8015 90.2979 46.5959 96.9287C45.6096 102.409 38.3759 101.669 32.896 100.189C27.416 98.7097 23.0618 96.0245 21.9359 90.7363C15.2802 95.5861 13.716 104.08 13.442 112.382C13.442 112.498 13.3971 112.61 13.3124 112.692C13.2327 112.774 13.1181 112.821 13.0035 112.821C12.8889 112.821 12.7744 112.774 12.6947 112.692C12.61 112.61 12.5652 112.498 12.5652 112.382C12.3759 103.094 14.0447 93.9969 21.637 88.7087C21.5573 86.3299 21.9658 83.9601 22.8277 81.7422C23.6895 79.5248 24.9998 77.5056 26.6637 75.8068C28.3316 74.1085 30.3273 72.7664 32.5283 71.8612C34.7293 70.9565 37.0927 70.5077 39.472 70.5425C43.2761 69.9871 47.1529 70.7822 50.4319 72.7894C51.4457 73.2825 50.9799 74.0223 50.5416 73.8306ZM25.5528 93.4763C28.649 97.5315 37.4169 99.6413 41.4721 98.9563C42.9791 98.7097 44.2122 98.0795 44.541 96.5177C45.5274 91.0377 36.0743 88.0511 30.4299 87.8593C28.1328 87.683 25.8417 88.2708 23.9088 89.5307C24.118 90.9635 24.6809 92.3206 25.5528 93.4763ZM63.0907 41.7999C60.1589 38.1831 62.1317 31.8812 70.3243 31.8538C73.5027 31.8538 75.0372 35.087 74.818 38.1831C74.3248 45.5537 66.0226 45.3345 63.0907 41.7999ZM72.8999 38.0461C72.8999 36.2378 72.0505 33.8814 70.1599 33.9088C65.7485 33.9088 63.7209 35.9638 63.7209 38.2379C63.8306 43.4165 73.2561 46.1017 72.8999 38.0461ZM74.0233 348.68C98.1079 339.063 109.287 385.615 128.96 425.619C129.086 427.299 129.029 428.992 128.796 430.661C128.796 434.853 128.33 462.609 125.892 465.76C125.234 467.021 122.467 465.76 121.179 464.966C110.242 458.196 99.9348 450.455 90.3812 441.84C90.299 441.746 90.2397 441.639 90.2008 441.52C90.1644 441.402 90.1505 441.278 90.1619 441.155C85.0655 433.894 65.9677 396.082 61.3372 377.121C58.1039 363.695 61.3098 353.694 74.0233 348.68ZM65.4197 383.478C78.3137 381.825 90.7807 377.754 102.163 371.477C95.7516 359.339 87.8329 345.502 74.7632 350.708C60.2137 356.489 60.5151 368.463 65.4197 383.396V383.478ZM111.013 454.718C111.856 454.013 112.774 453.405 113.753 452.91C117.457 451.028 121.734 450.615 125.727 451.759C126.001 448.498 127.563 427.291 127.563 427.099C107.04 434.606 113.37 431.346 93.039 441.456C95.1761 443.484 103.204 449.101 111.013 454.663V454.718ZM96.8749 375.422C94.2037 376.882 91.4587 378.208 88.6549 379.395C94.9365 389.259 100.485 399.573 105.259 410.248C109.863 419.865 109.698 419.81 114.384 430.305C117.124 429.428 119.864 428.606 122.604 427.784C119.644 421.893 98.6011 378.82 96.8749 375.368V375.422ZM113.315 430.579C104.41 414.604 95.3405 394.739 87.5589 379.752C84.8189 380.902 82.0789 381.834 79.339 382.656C80.7912 385.396 85.0381 392.684 86.1616 394.794C87.2849 396.904 98.5464 419.098 99.3409 420.797C100.601 423.537 104.054 431.181 105.122 433.62C107.917 432.387 110.602 431.455 113.425 430.524L113.315 430.579ZM104.136 433.976C102.465 430.935 95.5871 418.166 94.7377 416.522C93.45 413.974 79.0924 384.629 78.2978 382.93C75.777 383.642 73.1192 384.245 71.4203 384.574C76.4346 398.274 90.8743 424.66 96.0804 437.675C100.821 435.456 101.889 434.908 104.246 433.921L104.136 433.976ZM102.465 372.271L97.5599 375.011C107.444 391.844 116.053 409.391 123.316 427.51L127.426 426.249C111.507 392.328 110.767 387.889 102.574 372.217L102.465 372.271ZM91.1758 440.059L95.3131 438.086C90.847 429.318 76.8729 406.823 70.4887 384.766C68.9543 385.04 67.4473 385.286 65.9951 385.478C73.0369 404.266 81.4901 422.494 91.2853 440.004L91.1758 440.059ZM177.02 457.842C175.928 456.937 175.148 455.713 174.789 454.341C174.431 452.969 174.511 451.519 175.02 450.197C175.253 448.288 176.127 446.514 177.502 445.169C178.876 443.824 180.669 442.986 182.582 442.797C184.496 442.605 186.418 443.07 188.03 444.117C189.644 445.162 190.854 446.729 191.46 448.553C194.967 446.279 198.776 443.868 202.42 441.566C199.68 437.922 191.624 439.538 190.802 442.525C190.784 442.642 190.72 442.747 190.626 442.815C190.531 442.884 190.412 442.913 190.295 442.895C190.179 442.877 190.076 442.813 190.005 442.719C189.937 442.623 189.907 442.505 189.925 442.388C190.336 437.62 200.255 434.826 204.256 440.443C207.79 438.278 212.174 435.648 215.846 433.647C212.695 430.907 205.653 432.442 204.886 435.291C204.849 435.389 204.781 435.47 204.689 435.522C204.6 435.572 204.493 435.59 204.393 435.57C204.29 435.549 204.198 435.495 204.133 435.412C204.068 435.333 204.034 435.23 204.036 435.127C204.393 430.688 213.572 427.702 217.736 432.579C219.481 431.601 221.317 430.793 223.216 430.168C223.564 430.024 223.945 429.983 224.315 430.051C224.685 430.12 225.027 430.293 225.299 430.551C232.231 439.182 255.603 461.595 266.399 464.198C266.67 464.24 266.926 464.351 267.141 464.523C267.355 464.694 267.52 464.918 267.62 465.173C267.721 465.429 267.753 465.708 267.711 465.977C267.668 466.249 267.557 466.504 267.385 466.719C265.015 469.126 262.3 471.167 259.33 472.775C262.07 475.515 264.207 477.981 265.796 479.762C266.618 480.638 267.056 497.407 266.344 501.109C266.239 501.467 266.004 501.781 265.686 501.985C262.234 504.342 217.764 523.577 213.215 521.001C210.174 519.272 173.869 481.488 173.294 480.337C172.417 478.529 172.718 466.473 172.773 461.65C172.992 460.198 175.705 458.636 177.02 457.842ZM264.7 494.039V487.927C253.329 493.407 227.299 504.586 217.435 507.71C214.914 508.532 214.695 508.422 213.38 507.71C205.845 502.887 179.239 472.912 174.362 468.336V474.117C189.158 488.943 214.284 514.918 214.75 513.439C217.462 513.274 262.344 495.135 264.7 494.039ZM177.705 448.608C176.721 450.268 176.191 452.158 176.171 454.088C176.18 454.702 176.33 455.305 176.611 455.853C176.892 456.399 177.294 456.874 177.787 457.239C180.089 455.704 184.445 452.855 189.597 449.512C186.774 443.95 180.5 443.868 177.815 448.608H177.705ZM265.385 466.144C253.713 462.691 231.546 441.319 224.093 432.058C222.301 432.558 220.57 433.266 218.942 434.168C221.682 439.264 218.75 444.854 217.709 444.059C217.134 443.621 218.175 443.457 218.339 440.771C218.41 438.81 217.965 436.865 217.051 435.127C213.27 437.1 208.831 439.675 205.078 441.84C207.379 446.964 204.612 452.033 203.653 451.293C202.694 450.553 204.091 450.718 204.256 448.032C204.322 446.272 203.986 444.518 203.269 442.909C199.406 445.183 195.46 447.539 191.843 449.759C192.4 451.124 192.622 452.604 192.49 454.072C192.355 455.54 191.871 456.956 191.076 458.198C191.04 458.244 190.996 458.284 190.944 458.314C190.893 458.342 190.837 458.362 190.779 458.369C190.72 458.376 190.661 458.374 190.603 458.358C190.547 458.342 190.494 458.316 190.446 458.28C190.4 458.244 190.359 458.2 190.332 458.147C190.302 458.097 190.282 458.04 190.275 457.981C190.268 457.924 190.27 457.864 190.286 457.807C190.302 457.75 190.327 457.696 190.364 457.65C190.857 456.561 191.099 455.376 191.076 454.181C191.053 452.987 190.763 451.814 190.227 450.745C183.843 454.636 178.691 457.896 177.102 458.965C177.404 459.239 205.982 484.666 215.709 492.231C222.093 490.557 255.603 473.925 265.385 466.144ZM264.344 481.406C251.932 486.886 223.737 499.599 217.243 500.835C216.12 501.054 215.681 501.134 213.544 499.435C204.42 492.121 174.746 461.075 174.472 461.404C174.458 461.486 174.458 461.568 174.472 461.65V467.13C180.582 472.035 214.558 507.71 215.106 506.011C217.846 506.011 262.371 487.847 264.645 486.831C264.7 485.68 264.453 482.611 264.344 481.406ZM214.448 519.163C217.188 520.727 258.919 503.764 264.508 500.312C264.718 498.563 264.819 496.809 264.81 495.051C252.808 500.969 217.901 515.71 214.695 515.576C210.01 515.327 176.883 478.035 174.527 475.432C174.499 476.832 174.639 478.23 174.938 479.597C175.403 480.501 212.64 518.151 214.448 519.163ZM441.458 364.709C441.267 367.641 441.13 370.189 441.13 372.573C441.13 372.936 440.985 373.285 440.728 373.541C440.471 373.799 440.123 373.943 439.76 373.943C439.396 373.943 439.048 373.799 438.791 373.541C438.534 373.285 438.39 372.936 438.39 372.573C438.39 370.025 438.527 367.504 438.718 364.517C438.744 364.154 438.913 363.816 439.188 363.577C439.463 363.336 439.821 363.218 440.184 363.243C440.548 363.268 440.886 363.437 441.125 363.711C441.364 363.988 441.484 364.346 441.458 364.709ZM23.9636 309.772C24.1429 309.783 24.3173 309.829 24.4817 309.907C24.6411 309.987 24.7856 310.096 24.9001 310.233C25.0197 310.368 25.1094 310.526 25.1642 310.695C25.219 310.866 25.2389 311.046 25.2239 311.224C25.0595 313.745 24.8951 316.458 24.8951 319.088C24.8951 319.451 24.7507 319.8 24.4916 320.056C24.2375 320.314 23.8888 320.458 23.5251 320.458C23.1615 320.458 22.8127 320.314 22.5587 320.056C22.2996 319.8 22.1552 319.451 22.1552 319.088C22.1552 316.348 22.3195 313.608 22.5139 311.032C22.5238 310.854 22.5687 310.679 22.6483 310.519C22.7281 310.356 22.8376 310.213 22.9721 310.096C23.1067 309.978 23.2661 309.889 23.4355 309.834C23.6049 309.779 23.7842 309.756 23.9636 309.772ZM448.555 357.886C448.192 357.886 447.843 357.742 447.586 357.484C447.329 357.229 447.185 356.879 447.185 356.516C447.185 356.153 447.329 355.804 447.586 355.548C447.843 355.29 448.192 355.146 448.555 355.146C451.87 355.146 454.638 355.393 457.378 355.338C457.744 355.338 458.095 355.482 458.356 355.738C458.618 355.994 458.768 356.343 458.775 356.708C458.775 357.071 458.631 357.421 458.374 357.676C458.117 357.934 457.769 358.078 457.405 358.078C454.583 358.133 451.487 358.023 448.555 357.886ZM32.4576 301.662C35.7456 301.662 38.5129 301.853 41.2803 301.881C41.6435 301.881 41.9927 302.025 42.2483 302.283C42.5063 302.538 42.6504 302.888 42.6504 303.251C42.6504 303.614 42.5063 303.963 42.2483 304.219C41.9927 304.477 41.6435 304.621 41.2803 304.621C38.3211 304.621 35.2523 304.621 32.2932 304.402C31.93 304.379 31.5897 304.214 31.3481 303.943C31.108 303.671 30.9849 303.313 31.0053 302.949C31.0283 302.586 31.1927 302.246 31.4642 302.004C31.7382 301.762 32.0944 301.639 32.4576 301.662ZM442.198 340.953C442.034 343.474 441.869 346.187 441.869 348.817C441.862 349.178 441.716 349.522 441.46 349.778C441.205 350.034 440.861 350.18 440.499 350.187C440.136 350.187 439.787 350.043 439.531 349.785C439.274 349.529 439.129 349.18 439.129 348.817C439.129 346.077 439.294 343.337 439.458 340.761C439.484 340.398 439.652 340.06 439.927 339.821C440.202 339.581 440.561 339.462 440.924 339.487C441.287 339.512 441.626 339.681 441.865 339.955C442.104 340.232 442.224 340.59 442.198 340.953ZM22.8974 295.332C22.8974 292.592 23.0618 289.852 23.2511 287.277C23.276 286.913 23.4454 286.576 23.7194 286.336C23.9934 286.096 24.3521 285.977 24.7158 286.003C25.0795 286.028 25.4182 286.197 25.6573 286.47C25.8965 286.747 26.0161 287.105 25.9911 287.468C25.8268 289.989 25.6624 292.702 25.6624 295.332C25.6624 295.695 25.5179 296.045 25.2588 296.3C25.0047 296.558 24.656 296.702 24.2923 296.702C23.9286 296.702 23.575 296.558 23.3159 296.303C23.0518 296.047 22.9024 295.697 22.8974 295.332ZM421.977 357.53C421.797 357.523 421.62 357.48 421.457 357.405C421.293 357.329 421.146 357.222 421.024 357.09C420.902 356.957 420.807 356.804 420.745 356.633C420.683 356.464 420.654 356.286 420.662 356.105C420.69 355.747 420.852 355.411 421.116 355.167C421.38 354.925 421.727 354.79 422.087 354.79C425.402 354.927 428.169 355.037 430.937 354.982C431.3 354.982 431.649 355.126 431.906 355.384C432.162 355.64 432.307 355.989 432.307 356.352C432.307 356.715 432.162 357.064 431.906 357.32C431.649 357.578 431.3 357.722 430.937 357.722C428.005 357.777 424.936 357.667 421.977 357.53ZM5.87955 301.305C8.61954 301.442 11.6635 301.525 14.7024 301.525C14.8817 301.518 15.0611 301.547 15.2354 301.611C15.4048 301.676 15.5542 301.774 15.6888 301.897C15.8183 302.022 15.9229 302.173 15.9926 302.34C16.0624 302.506 16.1022 302.687 16.1022 302.867C16.1022 303.232 15.9578 303.584 15.6987 303.847C15.4446 304.107 15.0959 304.258 14.7322 304.265C11.6086 304.265 9.08786 304.265 5.76996 304.045C5.59061 304.038 5.41623 303.995 5.25183 303.92C5.08743 303.845 4.93799 303.737 4.81842 303.605C4.69388 303.472 4.59921 303.319 4.53943 303.148C4.47467 302.979 4.44977 302.801 4.45477 302.621C4.48962 302.264 4.65399 301.934 4.91803 301.691C5.17709 301.447 5.52084 301.31 5.87955 301.305ZM484.942 276.344C484.586 276.618 407.318 265.165 404.003 263.137C403.819 263.003 403.672 262.824 403.577 262.619C403.481 262.413 403.439 262.185 403.455 261.959C403.455 258.424 408.085 225.243 410.305 216.968C410.579 215.954 410.853 214.941 411.483 214.584C415.675 212.064 489.545 225.983 493.957 228.832C494.076 228.903 494.18 228.999 494.26 229.111C494.34 229.225 494.396 229.353 494.423 229.49C495.354 232.805 487.326 274.7 484.942 276.344ZM492.751 230.148C487.49 227.764 420.443 215.489 412.771 216.448C410.907 221.243 405.921 256.369 405.592 261.521C409.4 262.644 483.901 275.44 484.175 275.495C484.449 275.549 484.476 275.878 485.052 274.152C487.463 266.918 492.888 236.34 492.751 230.148Z" fill="#002DFF"/>
<path d="M397.975 265.576C397.826 265.299 397.759 264.984 397.783 264.672C397.783 260.315 404.03 211.954 406.249 208.091C406.423 207.806 406.669 207.572 406.963 207.413C407.257 207.254 407.587 207.176 407.921 207.186C417.1 206.063 494.532 221.188 499.629 224.722C500.341 225.216 500.231 226.449 500.149 227.764C499.711 234.97 491.929 282.372 489.189 282.098C488.888 282.098 488.997 281.879 489.71 283.331C493.984 292.126 502.095 320.294 501.93 325.965C501.93 328.349 501.382 331.445 499.026 331.281C482.12 329.199 399.235 316.047 375.397 311.142C374.465 310.95 373.863 310.101 373.89 308.703C374.171 306.374 374.877 304.118 375.972 302.045C379.315 295.771 393.18 270.919 397.975 265.576ZM489.025 281.249C491.162 278.509 499.026 231.298 498.423 226.065C492.395 222.941 416.004 208.173 408.003 209.378C405.811 215.406 400.139 258.945 399.783 264.178C409.483 267.521 476.64 278.372 489.025 281.249ZM487.819 282.071C485.518 281.495 407.126 268.371 399.947 266.48C396.029 270.124 378.329 301.607 377.178 304.292C392.906 307.032 486.203 322.623 499.93 324.705C499.738 316.403 491.217 287.386 487.819 282.071Z" fill="#002DFF"/>
<path d="M477.515 310.484C475.131 310.128 424.551 304.045 406.275 299.086C406.163 299.057 406.066 298.983 406.007 298.885C405.948 298.785 405.931 298.664 405.96 298.552C405.989 298.44 406.062 298.342 406.162 298.284C406.262 298.225 406.382 298.207 406.494 298.237C410.084 298.976 453.869 304.813 477.57 309.635C477.636 309.624 477.703 309.626 477.767 309.644C477.831 309.662 477.89 309.694 477.939 309.74C477.989 309.784 478.028 309.838 478.053 309.9C478.079 309.962 478.09 310.028 478.085 310.094C478.081 310.16 478.062 310.226 478.029 310.284C477.996 310.34 477.95 310.391 477.895 310.427C477.84 310.466 477.777 310.491 477.712 310.5C477.646 310.51 477.579 310.505 477.515 310.484ZM440.553 119.835C441.576 122.147 442.437 124.528 443.128 126.959C443.169 127.349 443.062 127.741 442.827 128.055C440.059 132.22 411.7 164.196 404.302 168.689C403.289 169.32 402.083 169.758 401.343 168.854C395.969 162.167 388.955 156.985 380.985 153.811C374.498 151.516 367.696 150.231 360.819 150.003C355.339 149.509 354.38 148.961 352.27 145.372C349.781 140.648 346.479 136.4 342.515 132.823C337.461 128.404 331.852 124.664 325.829 121.698C325.558 121.545 325.346 121.305 325.227 121.017C325.108 120.729 325.088 120.41 325.171 120.109C326.097 117.752 327.322 115.524 328.815 113.478C327.829 113.15 326.733 112.848 326.733 111.862C326.733 109.122 350.626 74.5431 357.257 68.0219C357.942 67.3369 358.928 66.4327 359.832 66.4875C373.532 67.2547 386.876 80.1875 394.603 91.4763C403.453 91.1475 409.18 90.3529 419.263 94.5999C426.381 97.6213 432.799 102.081 438.114 107.697C438.936 108.546 444.526 114.465 444.608 114.931C444.69 115.396 444.526 115.396 440.553 119.835ZM330.953 119.068C342.378 121.013 349.667 130.521 355.037 140.851C357.421 145.454 357.202 145.673 359.723 145.619C364.131 145.369 368.552 145.534 372.929 146.112C376.14 146.592 379.297 147.381 382.355 148.468C389.315 150.934 397.288 158.825 401.535 164.689C401.625 164.81 401.74 164.91 401.872 164.983C402.003 165.056 402.149 165.101 402.299 165.114C402.449 165.126 402.6 165.108 402.743 165.058C402.885 165.008 403.015 164.93 403.124 164.826C412.029 155.647 427.784 139.536 435.703 130.275C436.086 129.864 435.429 129.261 435.045 129.699C429.921 135.179 416.687 148.304 402.494 162.579C397.699 156.469 390.301 149.071 382.985 146.495C378.996 145.073 374.844 144.152 370.628 143.755C366.679 143.456 362.713 143.456 358.764 143.755C357.147 141.892 349.146 120.739 331.007 118.383C330.955 118.422 330.911 118.472 330.88 118.531C330.849 118.589 330.832 118.653 330.829 118.719C330.826 118.785 330.839 118.85 330.864 118.911C330.891 118.971 330.93 119.025 330.98 119.068H330.953ZM359.86 68.7069C354.38 72.5429 332.076 105.56 329.172 111.341C334.211 112.938 339.077 115.04 343.694 117.616C348.066 119.808 351.894 122.947 354.899 126.805C357.904 130.664 360.011 135.144 361.065 139.919C370.902 123.918 384.629 106.3 393.753 93.3395C393.205 92.9833 377.807 69.7755 359.86 68.7069ZM418.66 96.1069C408.659 92.0791 403.124 93.0107 394.849 93.3669C386.629 107.396 371.861 127.178 362.134 140.139C371.112 138.014 380.559 139.314 388.63 143.783C393.479 146.523 399.398 153.099 403.042 157.181C408.303 152.962 438.662 120.63 443.539 115.15C436.032 106.656 429.099 100.272 418.66 95.9973V96.1069ZM468.802 165.785C469.479 165.31 470.28 165.041 471.107 165.012C471.934 164.983 472.751 165.194 473.46 165.621C473.976 165.851 474.442 166.181 474.831 166.591C475.22 167.002 475.524 167.484 475.727 168.012C475.929 168.54 476.025 169.103 476.01 169.668C475.995 170.233 475.869 170.79 475.638 171.306C475.408 171.823 475.078 172.288 474.668 172.677C474.258 173.066 473.775 173.37 473.247 173.573C472.719 173.775 472.156 173.872 471.591 173.856C471.026 173.841 470.469 173.715 469.953 173.484C469.128 173.304 468.377 172.877 467.801 172.26C467.224 171.644 466.848 170.867 466.724 170.032C466.599 169.197 466.731 168.343 467.102 167.585C467.473 166.826 468.066 166.199 468.802 165.785ZM470.61 171.265C472.528 171.868 473.679 171.265 474.145 170.333C475.022 168.388 473.926 165.401 471.076 166.278C469.076 167.018 467.459 170.388 470.61 171.402V171.265ZM329.473 40.4027C328.678 42.0193 324.979 41.4165 323.363 40.8959C322.513 40.6219 321.965 40.3205 321.883 39.4985C321.637 37.4435 321.363 19.6335 322.294 17.9073C322.39 17.7262 322.538 17.5778 322.719 17.4803C322.899 17.3828 323.104 17.3406 323.308 17.3593C326.231 17.3511 329.14 17.776 331.939 18.6197C333.062 19.3047 330.459 38.5943 329.473 40.4027ZM331.364 19.2773C328.832 18.9152 326.273 18.796 323.719 18.9211C323.555 20.9487 323.993 38.5121 324.02 38.7861C325.178 39.2011 326.414 39.351 327.637 39.2245C327.829 38.5943 328.158 36.8955 328.569 34.7583C329.776 29.6517 330.709 24.4838 331.364 19.2773ZM471.46 142.659C471.197 142.794 470.906 142.864 470.61 142.864C470.315 142.864 470.024 142.794 469.761 142.659C468.702 142.006 467.863 141.052 467.35 139.919C467.28 139.738 467.259 139.542 467.288 139.35C467.316 139.158 467.394 138.976 467.514 138.823C468.829 137.262 483.187 120.63 484.941 121.671C487.094 123.065 489.137 124.622 491.051 126.329C491.128 126.398 491.19 126.483 491.232 126.577C491.275 126.671 491.297 126.773 491.297 126.877C491.352 128.302 475.405 141.07 471.46 142.659ZM484.612 122.383C482.612 123.836 475.871 132.165 469.624 139.536C469.893 139.959 470.225 140.338 470.61 140.659C477.179 136.456 483.45 131.805 489.379 126.74C487.893 125.179 486.3 123.724 484.612 122.383ZM441.566 61.9391C440.964 51.3079 434.771 46.3759 428.305 45.1155C430.141 51.8559 429.839 60.6239 423.181 61.7473C420.003 62.2679 418.441 60.6239 416.139 58.7059C406.303 50.4859 414.249 42.2659 425.346 42.8413C421.208 31.4977 411.646 22.2639 398.959 21.9625C398.843 21.9625 398.732 21.9164 398.65 21.8342C398.567 21.7518 398.521 21.6403 398.521 21.5241C398.521 21.4079 398.567 21.2963 398.65 21.2141C398.732 21.1319 398.843 21.0857 398.959 21.0857C412.659 20.8117 423.428 30.6757 427.675 43.0057C434.99 44.2661 442.251 49.7461 442.443 61.7747C442.454 61.8325 442.454 61.8912 442.441 61.9485C442.429 62.0058 442.406 62.0601 442.373 62.1089C442.34 62.1573 442.298 62.1986 442.248 62.2305C442.2 62.2624 442.144 62.2848 442.087 62.2953C442.029 62.3062 441.97 62.3052 441.913 62.2933C441.856 62.2813 441.802 62.2579 441.753 62.225C441.704 62.1916 441.663 62.1498 441.631 62.1005C441.599 62.0517 441.577 61.9969 441.566 61.9391ZM425.976 44.7867C421.893 44.5127 415.81 45.7731 414.139 49.4721C413.18 51.5819 414.139 54.1849 417.537 57.0345C418.459 57.9586 419.511 58.7432 420.66 59.3635C424.77 61.1171 429.319 56.0481 425.976 44.7867ZM418.139 432.305C420.787 431.595 423.549 431.424 426.264 431.798C428.979 432.172 431.591 433.086 433.948 434.485C436.304 435.883 438.357 437.739 439.985 439.945C441.614 442.148 442.785 444.655 443.43 447.32C444.647 452.855 443.616 458.645 440.564 463.418C437.511 468.192 432.688 471.558 427.154 472.775C421.62 473.992 415.829 472.962 411.056 469.909C406.282 466.856 402.917 462.034 401.699 456.499C401.179 453.83 401.193 451.085 401.739 448.421C402.285 445.756 403.353 443.228 404.881 440.979C406.41 438.73 408.368 436.805 410.643 435.317C412.919 433.828 415.467 432.805 418.139 432.305ZM409.673 454.636C410.772 459.02 413.404 462.867 417.093 465.479C420.781 468.094 425.283 469.302 429.784 468.884C433.916 467.27 437.347 464.249 439.472 460.355C441.596 456.46 442.28 451.942 441.402 447.594C440.377 443.103 437.769 439.13 434.056 436.403C430.343 433.677 425.773 432.378 421.181 432.743C417.008 434.467 413.577 437.607 411.492 441.612C409.407 445.617 408.802 450.229 409.782 454.636H409.673Z" fill="#002DFF"/>
<path d="M381.643 440.114C384.028 439.292 386.585 439.093 389.069 439.538C390.098 437.178 391.365 434.928 392.85 432.825C391.069 431.209 386.192 426.715 387.37 424.605C391.563 419.589 396.541 415.287 402.111 411.864C404.437 410.561 406.998 409.732 409.646 409.426C411.4 409.672 415.565 416.495 416.496 418.029C417.099 418.029 419.236 417.344 419.4 417.262C419.4 415.289 419.976 408.165 421.757 407.343C423.748 406.611 425.816 406.103 427.922 405.836C429.867 405.535 447.376 408.741 448.664 411.097C449.513 412.686 447.54 418.687 446.965 420.358C448.442 421.171 449.862 422.087 451.212 423.098C453.952 425.044 453.212 424.962 453.705 424.742C454.301 424.457 454.94 424.272 455.596 424.194C457.785 422.911 460.351 422.427 462.857 422.824C465.378 423.646 471.323 437.182 472.282 440.662C472.596 441.539 472.681 442.482 472.529 443.402C471.871 445.21 467.487 446.662 465.652 447.238C466.159 450.763 466.159 454.343 465.652 457.869C468.063 458.527 473.077 460.006 472.803 462.472C472.529 464.938 466.118 481.214 463.46 482.502C462.004 483.317 460.394 483.817 458.733 483.972C457.072 484.127 455.397 483.935 453.815 483.406C452.924 482.96 452.063 482.458 451.239 481.899C450.143 482.721 448.992 483.461 447.814 484.173C448.664 486.283 450.554 490.996 449.951 493.133C449.65 494.259 448.746 494.612 447.485 495.081C444.006 496.341 425.264 500.835 422.414 500.342C421.346 500.177 420.77 499.051 420.442 497.985C419.833 495.549 419.475 493.063 419.373 490.557C417.966 490.418 416.567 490.208 415.181 489.93C414.334 491.414 413.252 492.759 411.975 493.9C410.578 494.886 409.399 494.393 407.81 493.382C407.043 494.368 405.892 495.738 404.659 495.873C401.563 496.232 388.767 484.173 387.452 481.707C386.356 479.652 390.356 475.98 392.137 474.364C390.211 471.464 388.698 468.311 387.644 464.993C385.667 465.29 383.667 465.402 381.671 465.322C380.766 465.322 379.725 464.993 379.342 464.144C377.67 460.335 378.163 445.895 379.342 442.224C379.506 441.155 380.739 440.443 381.643 440.114ZM380.986 442.635C380.054 446.197 379.753 459.65 381.123 463.13C383.492 463.363 385.882 463.253 388.22 462.801C388.469 462.758 388.725 462.81 388.938 462.947C389.151 463.084 389.305 463.297 389.37 463.541C390.461 467.244 392.155 470.745 394.385 473.898C394.543 474.108 394.615 474.368 394.584 474.631C394.554 474.891 394.422 475.129 394.22 475.295C392.297 476.818 390.664 478.675 389.397 480.775C390.767 483.022 401.481 492.834 404.44 493.656C404.878 493.656 406.084 492.012 406.385 491.573C407.398 490.049 408.312 488.47 409.125 486.831C409.244 486.592 409.448 486.407 409.696 486.313C409.944 486.213 410.22 486.213 410.468 486.313C418.414 489.297 421.428 487.543 421.428 489.516C421.424 492.47 421.906 495.405 422.853 498.204C429.292 497.502 435.633 496.087 441.759 493.985C441.463 491.055 440.647 488.206 439.348 485.57C438.526 483.735 441.814 484.255 447.951 478.008C448.149 477.825 448.408 477.723 448.677 477.723C448.946 477.723 449.206 477.825 449.403 478.008C452.143 480.255 455.705 482.447 456.418 482.091C457.815 481.406 464.254 466.801 464.638 463.842C462.689 462.484 460.476 461.55 458.144 461.102C457.895 461.031 457.681 460.874 457.539 460.657C457.399 460.44 457.34 460.18 457.377 459.924C458.048 456.045 458.048 452.076 457.377 448.197C457.335 447.957 457.385 447.713 457.517 447.51C457.65 447.307 457.854 447.16 458.089 447.101C460.155 446.56 462.143 445.758 464.008 444.717C464.61 444.279 464.556 444.306 464.501 443.84C462.727 437.445 459.883 431.394 456.089 425.948C454.609 425.537 450.609 428.469 449.239 429.51C449.096 429.65 448.904 429.727 448.705 429.727C448.505 429.727 448.313 429.65 448.17 429.51C446.911 428.204 445.556 426.996 444.115 425.893C439.95 422.742 438.827 423.153 439.183 422.057C440.443 419.308 441.15 416.338 441.266 413.317C440.841 412.963 440.359 412.686 439.841 412.495C437.283 411.483 434.655 410.659 431.977 410.029C428.731 409.124 425.395 408.581 422.031 408.412C421.455 408.659 420.935 411.152 420.798 411.919C419.784 417.399 420.469 418.523 419.674 418.605C411.865 419.372 410.276 421.537 409.728 420.578C408.209 417.92 406.438 415.415 404.44 413.097C403.865 412.522 403.892 412.248 402.166 413.234C397.009 416.605 392.39 420.733 388.466 425.482C388.055 426.195 391.617 429.976 394.22 432.195C395.124 432.99 393.836 433.346 391.48 437.84C389.123 442.333 389.672 443.594 388.411 443.32C385.981 442.737 383.481 442.507 380.986 442.635ZM0.703461 213.68C6.44751 211.334 12.4655 209.741 18.6181 208.94C23.1117 208.228 28.4024 207.515 32.8686 206.94C28.5668 200.857 15.8282 185.458 13.691 181.704C13.0883 180.691 14.2341 179.266 15.0859 178.416C19.8535 173.32 29.06 171.402 36.1292 170.306C40.1844 169.648 57.1176 167.566 59.9946 168.936C63.447 170.58 88.9838 208.94 89.7509 214.776C89.7509 215.763 89.4221 216.146 88.4632 216.502C84.4354 217.982 66.2692 220.284 62.214 221.243C67.694 230.833 92.0526 263.247 94.4363 267.823C95.0117 268.973 94.6555 269.658 93.9706 269.878C91.5045 270.857 88.9678 271.645 86.3808 272.234C85.3944 272.535 83.2298 271.193 80.0788 269.275C65.9404 260.781 5.27676 220.722 0.618744 215.543C0.489227 215.422 0.389618 215.274 0.319855 215.11C0.255096 214.946 0.22522 214.77 0.235168 214.593C0.240143 214.417 0.289978 214.243 0.36969 214.086C0.449402 213.928 0.563995 213.79 0.703461 213.68ZM59.5836 246.56C82.8736 261.932 90.7374 266.425 91.0114 266.617C87.2575 260.89 63.9402 228.942 59.9398 221.297C59.8715 221.149 59.8347 220.989 59.8347 220.825C59.8347 220.663 59.8735 220.501 59.9442 220.354C60.015 220.206 60.1176 220.078 60.2456 219.975C60.3712 219.873 60.5196 219.799 60.6795 219.763C63.4196 218.777 83.3668 216.639 88.0796 214.968C87.4767 209.872 62.5976 171.347 59.5836 169.813C56.5696 168.278 27.3338 171.758 21.8513 175.676C24.7307 181.293 40.6228 200.967 43.1984 205.542C43.719 206.474 43.8834 207.378 42.8696 207.625C41.8558 207.871 16.1023 210.885 10.4828 212.721C17.3328 218.448 51.9116 241.409 59.5836 246.451V246.56ZM235.355 79.0367C235.355 79.2833 235.19 79.5847 234.779 81.1739C234.672 81.5186 234.434 81.8081 234.117 81.9819C233.802 82.1553 233.43 82.1996 233.08 82.1055C232.731 82.0038 232.437 81.7677 232.263 81.4489C232.087 81.1305 232.046 80.7554 232.149 80.4067C232.423 79.3381 232.669 78.4339 232.834 77.9955C232.994 77.6946 233.259 77.4639 233.581 77.3488C233.9 77.2332 234.252 77.2412 234.567 77.3712C234.882 77.5013 235.138 77.7439 235.281 78.0518C235.428 78.3596 235.455 78.7109 235.355 79.0367Z" fill="#002DFF"/>
</svg>
