<svg width="24" height="24" viewBox="0 0 24 24" fill="none" xmlns="http://www.w3.org/2000/svg">
<path fill-rule="evenodd" clip-rule="evenodd" d="M5.07295 15.4276L5.07302 15.4275C5.39118 15.002 5.80708 14.4458 6.13419 13.433C6.46664 12.4036 6.70134 10.942 6.84344 8.5995C7.01728 5.73348 9.27587 3.5 12.0001 3.5H12.4981C14.9561 3.5 16.9936 5.50475 17.1274 8.07787C17.2609 10.6474 17.495 12.2265 17.8302 13.3195C18.1632 14.4052 18.5931 14.9805 18.9271 15.4274C18.9569 15.4672 18.9859 15.5061 19.0141 15.5442C19.0959 15.655 19.0938 15.7133 19.0927 15.7359C19.0906 15.7753 19.072 15.8652 18.978 15.9896C18.7745 16.2591 18.3555 16.5 17.8827 16.5H6.11746C5.64474 16.5 5.22577 16.2591 5.02225 15.9896C4.92831 15.8651 4.90966 15.7752 4.9076 15.7357C4.90642 15.7131 4.90444 15.6548 4.98624 15.544C5.01418 15.5061 5.04313 15.4674 5.07295 15.4276ZM5.34619 8.50868C5.07917 12.9107 4.49794 13.6897 3.86826 14.5337C3.83879 14.5732 3.80921 14.6128 3.77955 14.653C2.66324 16.1648 4.23818 18 6.11746 18H8.21962C8.2196 18.0249 8.2196 18.0501 8.2196 18.0758C8.2196 20.2431 10.0105 22 12.2196 22C14.4287 22 16.2196 20.2431 16.2196 18.0758C16.2196 18.0501 16.2196 18.0249 16.2196 18H17.8827C19.762 18 21.337 16.165 20.2208 14.6532C20.191 14.613 20.1614 14.5732 20.1319 14.5337C19.4787 13.6582 18.8776 12.8526 18.6254 8C18.4533 4.68968 15.8129 2 12.4981 2H12.0001C8.41022 2 5.56354 4.92541 5.34619 8.50868ZM14.7196 18.0758C14.7196 19.3877 13.6275 20.5 12.2196 20.5C10.8117 20.5 9.7196 19.3877 9.7196 18.0758L9.71963 18.0375C9.79276 18.0324 9.87668 18.0275 9.9727 18.0233C10.4944 18.0004 11.2051 18.0001 12.2196 18.0001C13.2341 18.0001 13.9448 18.0005 14.4665 18.0233C14.5625 18.0275 14.6464 18.0324 14.7196 18.0375L14.7196 18.0758Z" fill="#000B26" fill-opacity="0.72"/>
</svg>
