<svg width="136" height="26" viewBox="0 0 136 26" fill="none" xmlns="http://www.w3.org/2000/svg">
<path d="M48.804 0.655717H33.0909V25.3443H37.8808V5.45924H48.804V0.655717Z" fill="#002DFF"/>
<path d="M102.953 25.3443V0.655717H98.1484V10.644H86.7433V0.655717H81.9534V25.3443H86.7433V15.356H98.1484V25.3443H102.953Z" fill="#002DFF"/>
<path d="M134.949 25.878L136 21.3947C130.611 19.7478 132.159 8.57009 133.094 1.87566L133.225 0.960704L128.859 0.320235L128.567 2.47038L129.166 4.94076L128.348 5.48974L128.289 5.2C128.289 5.18475 128.114 4.37654 127.574 3.47683C125.676 1.18944 123.062 0 119.79 0C116.563 0 113.759 1.26569 111.467 3.75132C109.174 6.2522 108.006 9.36305 108.006 12.9924C108.006 16.6065 109.174 19.7021 111.467 22.2182C113.759 24.7191 116.548 26 119.79 26C123.354 26 126.128 24.5971 128.041 21.8065C128.26 21.5015 128.494 21.105 128.771 20.6018L128.961 20.2358L129.122 20.617C130.305 23.3619 132.262 25.1308 134.949 25.878ZM125.982 18.8938C124.522 20.4493 122.682 21.2422 120.491 21.2422C118.301 21.2422 116.446 20.4493 115.001 18.8938C113.555 17.3384 112.825 15.356 112.825 12.9924C112.825 10.6287 113.555 8.64634 115.001 7.09091C116.461 5.53548 118.301 4.74252 120.491 4.74252C122.682 4.74252 124.536 5.53548 125.982 7.09091C127.428 8.64634 128.173 10.6287 128.173 12.9924C128.173 15.356 127.428 17.3384 125.982 18.8938Z" fill="#002DFF"/>
<path d="M26.9284 25.878L27.9798 21.3947C22.6058 19.7478 24.1392 8.58534 25.0738 1.87566L25.2782 1.89091L25.0738 1.86041L25.2052 0.945455L20.8388 0.304985L20.7074 1.21994C20.649 1.63167 20.5906 2.0434 20.5322 2.48563L21.1163 4.95601L20.2985 5.50499L20.2401 5.21525C20.2401 5.2 20.0649 4.39179 19.5245 3.49208C17.6553 1.18944 15.0413 0 11.7702 0C8.5429 0 5.73907 1.26569 3.44636 3.75132C1.16826 6.2522 0 9.36305 0 12.9924C0 16.6065 1.16826 19.7021 3.46097 22.2182C5.75368 24.7191 8.54289 26 11.7848 26C15.348 26 18.1372 24.5971 20.0356 21.8065C20.2547 21.5015 20.4883 21.105 20.7658 20.6018L20.9556 20.2358L21.1163 20.617C22.2845 23.3619 24.2414 25.1308 26.9284 25.878ZM17.9766 18.8938C16.5163 20.4493 14.6763 21.2422 12.4858 21.2422C10.2953 21.2422 8.44067 20.4493 6.99495 18.8938C5.54923 17.3384 4.80447 15.356 4.80447 12.9924C4.80447 10.6287 5.53463 8.64634 6.99495 7.09091C8.44067 5.53548 10.2953 4.74252 12.4858 4.74252C14.6763 4.74252 16.5309 5.53548 17.9766 7.09091C19.4223 8.64634 20.1671 10.6287 20.1671 12.9924C20.1671 15.356 19.4223 17.3384 17.9766 18.8938Z" fill="#002DFF"/>
<path d="M68.8543 6.99941C70.3292 8.43285 71.074 10.2628 71.074 12.4129C71.074 14.5631 70.3292 16.393 68.8543 17.8264C67.686 18.9548 66.2695 19.6411 64.6631 19.8698V25.329H75.8784V20.8915L70.373 22.1419L69.8473 21.288L70.1394 21.227C70.373 21.1812 75.8054 19.946 75.8054 12.2909C75.8054 8.84458 74.5933 5.90147 72.213 3.53783C69.8181 1.20469 66.8536 0 63.3781 0C59.9317 0 56.9818 1.20469 54.5723 3.56833C52.1774 5.93197 50.9507 8.87507 50.9507 12.3214C50.9507 19.9765 56.3831 21.2117 56.6168 21.2575L56.9088 21.3185L56.3831 22.1724L56.2517 22.1419L50.8923 20.922V25.3595H62.1076V19.9003C60.4866 19.6716 59.0847 18.9853 57.9164 17.8569C56.4415 16.4235 55.6822 14.5935 55.6822 12.4434C55.6822 10.2933 56.4269 8.46334 57.9164 7.02991C59.3914 5.61173 61.2314 4.87977 63.3927 4.87977C65.5539 4.87977 67.3793 5.58123 68.8543 6.99941Z" fill="#002DFF"/>
</svg>
