<svg width="16" height="16" viewBox="0 0 16 16" fill="none" xmlns="http://www.w3.org/2000/svg">
<path fill-rule="evenodd" clip-rule="evenodd" d="M8.75 2C8.75 1.58579 8.41421 1.25 8 1.25C7.58579 1.25 7.25 1.58579 7.25 2V9.26883L4.51296 6.70285C4.21077 6.41955 3.73614 6.43486 3.45285 6.73704C3.16955 7.03923 3.18486 7.51385 3.48704 7.79715L7.48704 11.5472C7.77554 11.8176 8.22446 11.8176 8.51296 11.5472L12.513 7.79715C12.8151 7.51385 12.8305 7.03923 12.5472 6.73704C12.2639 6.43486 11.7892 6.41955 11.487 6.70285L8.75 9.26883V2ZM2 13.25C1.58579 13.25 1.25 13.5858 1.25 14C1.25 14.4142 1.58579 14.75 2 14.75H14C14.4142 14.75 14.75 14.4142 14.75 14C14.75 13.5858 14.4142 13.25 14 13.25H2Z" fill="#000B26" fill-opacity="0.32"/>
</svg>
