<svg width="24" height="24" viewBox="0 0 24 24" fill="none" xmlns="http://www.w3.org/2000/svg">
<path fill-rule="evenodd" clip-rule="evenodd" d="M20.0304 3.96967C20.3233 4.26256 20.3233 4.73744 20.0304 5.03033L18.3908 6.66991C18.3909 6.67 18.391 6.67008 18.3911 6.67016L17.3299 7.73131C17.3298 7.73123 17.3297 7.73115 17.3296 7.73106L7.85155 17.2091C7.85166 17.2092 7.85176 17.2093 7.85186 17.2094L6.77414 18.2871C6.77404 18.287 6.77394 18.2869 6.77384 18.2869L5.03037 20.0303C4.73748 20.3232 4.2626 20.3232 3.96971 20.0303C3.67682 19.7374 3.67682 19.2626 3.96971 18.9697L5.60929 17.3301C3.63473 15.48 2.51809 13.2015 2.14364 12.3461C2.04668 12.1246 2.04668 11.8754 2.14364 11.6539C2.81565 10.1188 5.87815 4 12 4C14.0897 4 15.8229 4.71293 17.2262 5.71314L18.9697 3.96967C19.2626 3.67678 19.7375 3.67678 20.0304 3.96967ZM8.55607 19.2957C9.57447 19.7327 10.7204 20 12 20C18.1219 20 21.1844 13.8812 21.8564 12.3461C21.9534 12.1246 21.9534 11.8754 21.8564 11.6539C21.5767 11.0148 20.8826 9.5814 19.7261 8.12574L18.6577 9.19408C19.5089 10.2937 20.073 11.3702 20.3667 12C19.991 12.8055 19.1732 14.3416 17.8779 15.7225C16.4381 17.2575 14.5108 18.5 12 18.5C11.1779 18.5 10.4184 18.3668 9.71807 18.1337L8.55607 19.2957ZM12 5.5C13.6161 5.5 14.9904 6.01472 16.1485 6.79085L13.524 9.41538C13.2907 9.27755 13.0372 9.1704 12.769 9.09947C12.5235 9.03457 12.2658 9 12 9C10.3431 9 8.99998 10.3431 8.99998 12C8.99998 12.2658 9.03456 12.5236 9.09945 12.769C9.17038 13.0372 9.27754 13.2908 9.41537 13.524L6.67044 16.2689C6.48033 16.0923 6.29763 15.9096 6.12217 15.7225C4.82689 14.3416 4.00909 12.8055 3.63334 12C4.00909 11.1945 4.8269 9.65836 6.12217 8.27749C7.562 6.7425 9.48923 5.5 12 5.5Z" fill="#000B26" fill-opacity="0.72"/>
</svg>
