<svg width="548" height="548" viewBox="0 0 548 548" fill="none" xmlns="http://www.w3.org/2000/svg">
<path d="M354.09 411.274C349.522 409.657 344.843 408.374 340.088 407.438L339.513 409.548C339.449 409.797 339.297 410.014 339.086 410.16C338.874 410.306 338.618 410.37 338.362 410.342L319.539 408.15C314.36 396.341 304.852 378.449 304.715 378.175C304.852 373.709 304.715 369.955 304.715 365.68C315.484 369.681 335.403 377.271 345.815 382.12C346.05 382.271 346.232 382.495 346.335 382.755C346.439 383.016 346.458 383.301 346.39 383.573C346.39 383.573 346.198 384.258 345.952 385.244C351.048 385.244 366.31 384.504 369.982 387.984C370.553 388.779 370.833 389.747 370.776 390.724C370.995 394.505 369.105 423.878 366.091 432.509C364.529 437.03 361.241 436.537 358.994 432.208C356.394 425.689 354.724 418.834 354.035 411.849C354.035 411.493 354.117 411.521 354.09 411.274ZM357.241 386.751C353.898 386.477 352.857 386.532 345.678 386.313C344.39 391.19 341.732 401.218 340.362 406.342C345.197 407.091 349.968 408.198 354.638 409.657C356.093 402.1 356.963 394.441 357.241 386.751Z" fill="#002DFF"/>
<path d="M101.901 146.946C101.216 145.987 102.092 144.754 102.832 143.795C100.736 141.64 98.4113 139.719 95.9 138.069C91.66 135.956 87.7851 133.181 84.4194 129.849C83.022 128.396 80.3916 125.41 81.378 123.656C82.3644 121.903 84.118 121.793 86.5018 122.807C85.4696 121.723 84.6246 120.472 84.0084 119.108C83.2412 116.971 85.0496 115.244 88.9678 116.834C87.543 114.559 87.2142 112.176 89.6254 111.025C91.5708 110.093 94.4204 112.313 96.0644 113.765C99.2931 116.585 102.323 119.625 105.134 122.862C106.86 119.245 109.6 115.08 113.025 116.395C116.45 117.71 113.792 123.601 112.039 126.807L118.258 131.109C119.199 130.601 120.261 130.365 121.327 130.424C128.396 131.63 160.865 156.344 164.153 156.344C166.674 156.344 202.678 139.082 233.804 134.096C233.863 133.909 233.976 133.743 234.126 133.617C234.277 133.491 234.459 133.41 234.654 133.383C240.083 132.457 245.586 132.044 251.094 132.15C251.26 132.162 251.422 132.209 251.568 132.289C251.717 132.37 251.842 132.481 251.943 132.616H254.245C254.793 130.397 256.82 125.273 257.533 123.3C255.669 121.683 253.094 120.861 251.751 118.258C249.285 113.436 249.395 105.052 250.08 99.6811C246.984 97.3247 246.901 93.5435 247.614 89.6801C247.888 88.1183 248.737 84.5837 250.052 83.7069C250.792 83.2137 252.354 83.7069 253.697 84.2001C255.039 81.0765 255.039 82.5013 254.491 81.2409C254.235 80.66 254.087 80.0383 254.053 79.4051C252.601 79.8435 249.587 76.9391 250.628 73.1031C251.173 71.7301 251.842 70.4095 252.628 69.1575C252.244 68.2259 251.422 67.1025 253.998 63.6775C255.107 62.4809 256.548 61.6415 258.135 61.2663H259.396C260.304 59.9466 261.64 58.9792 263.177 58.5263C265.497 57.9345 267.958 58.2792 270.027 59.4853C270.575 59.8963 271.013 60.4443 271.561 60.8279C272.801 60.0757 274.221 59.6781 275.671 59.6781C277.121 59.6781 278.541 60.0757 279.781 60.8279C280.507 61.1124 281.167 61.5408 281.722 62.0868C282.277 62.6333 282.718 63.2859 283.015 64.0063C284.357 63.543 285.782 63.3647 287.197 63.4827C288.611 63.6008 289.988 64.0123 291.235 64.6913C295.968 67.258 299.509 71.5757 301.099 76.7199C301.142 77.4956 301.142 78.2733 301.099 79.0489H301.4C305.51 78.4461 310.743 88.2005 306.551 95.7903C306.058 96.6945 305.428 97.5439 304.825 98.5303C303.071 101.27 303.756 102.092 299.838 105.435C298.687 106.422 298.496 106.339 297.783 106.942C297.071 107.545 297.345 107.244 296.934 108.778C296.71 109.682 296.308 110.533 295.753 111.28C295.198 112.028 294.5 112.658 293.701 113.135C293.408 115.815 292.266 118.331 290.44 120.313C289.862 120.961 289.187 121.515 288.44 121.957C288.239 122.071 288.013 122.137 287.782 122.149C286.96 127.246 285.946 133.876 285.508 136.699L287.947 138.014C291.136 139.298 294.239 140.79 297.235 142.48C297.47 142.643 297.637 142.886 297.701 143.165C300.605 144.699 303.345 146.152 304.907 147.083C326.662 159.989 388.45 245.066 389.08 248.956C389.149 249.18 389.149 249.418 389.08 249.641C388.194 251.055 387.115 252.336 385.874 253.45C386.256 254.149 386.716 254.799 387.244 255.395C392.724 258.985 400.944 264.328 405.355 269.095C405.665 269.372 405.897 269.724 406.029 270.116C406.161 270.509 406.188 270.929 406.108 271.335C406.028 271.742 405.843 272.121 405.571 272.436C405.3 272.749 404.952 272.986 404.561 273.123C403.739 273.397 403.601 273.315 398.258 270.383C399.727 271.671 400.928 273.235 401.793 274.986C402.149 276.493 400.779 277.37 399.053 277.096C398.082 276.841 397.158 276.434 396.313 275.891C396.808 276.653 397.07 277.544 397.07 278.453C397.07 279.361 396.808 280.252 396.313 281.014C393.573 284.467 386.394 273.589 382.613 270.904C381.079 272.849 378.997 277.398 375.681 276.192C372.804 275.123 375.955 268.794 375.681 266.958C374.566 265.888 373.376 264.899 372.119 263.999C370.006 265.565 367.589 266.677 365.023 267.26C360.502 267.26 313.319 219.638 309.73 215.83C311.017 227.941 317.511 279.918 316.141 290.029C315.511 294.605 304.524 295.262 299.893 295.509C301.29 328.389 302.222 378.202 302.469 378.723C309.73 394.368 311.702 398.643 314.141 403.383C318.58 411.877 337.267 443.222 339.376 450.346C339.678 451.47 339.705 451.908 338.527 453.991C342.058 457.703 345.335 461.649 348.336 465.8C349.843 468.54 343.377 494.077 338.801 503.119C337.76 505.146 336.061 508.27 333.787 508.19C326.937 507.941 326.964 483.336 327.156 476.459C327.157 476.246 327.235 476.043 327.375 475.883C326.133 474.029 324.779 472.255 323.32 470.568C322.449 471.168 321.533 471.698 320.58 472.157C319.648 472.568 318.607 471.855 317.84 471.225C308.716 464.046 259.505 402.725 248.956 373.791C244.161 360.584 237.777 342.336 235.969 329.403C234.863 321.226 234.761 312.945 235.667 304.743C235.667 304.626 235.622 304.515 235.539 304.432C235.457 304.35 235.346 304.304 235.229 304.304C235.112 304.304 235 304.35 234.918 304.432C234.836 304.515 234.791 304.626 234.791 304.743C233.418 312.99 233.151 321.386 233.996 329.704C236.024 347.651 250.189 385.052 257.752 398.807C251.231 397.601 237.969 394.971 231.557 393.053C210.185 386.559 190.457 367.187 188.731 345.432C188.172 335.182 188.172 324.912 188.731 314.661C188.916 300.512 190.754 286.433 194.211 272.712C188.402 269.561 183.087 265.862 181.361 262.465C177.662 255.204 187.443 213.419 189.581 201.691C177.881 202.979 157.961 205.308 148.672 198.047C138.041 189.498 115.08 165.441 101.901 146.946ZM328.636 474.952C333.568 471.965 340.472 464.868 341.514 459.306C340.39 457.881 339.212 456.566 338.116 455.087C334.403 460.754 329.772 465.764 324.416 469.91C325.92 471.506 327.33 473.189 328.636 474.952ZM110.806 127.574C110.664 127.484 110.561 127.343 110.522 127.18C110.481 127.016 110.504 126.844 110.586 126.698C111.545 124.917 114.422 118.642 112.422 117.93C111.271 117.491 110.258 118.204 109.408 119.163C108.111 120.808 107.102 122.661 106.422 124.643C106.371 124.803 106.278 124.948 106.15 125.06C106.024 125.172 105.869 125.247 105.705 125.279C105.538 125.31 105.366 125.295 105.207 125.236C105.049 125.177 104.91 125.076 104.805 124.944C102.065 121.903 95.6534 114.97 92.0366 113.107C89.2966 111.682 88.639 114.313 95.352 120.45C96.8934 121.626 98.3749 122.879 99.7908 124.204C99.8685 124.312 99.9118 124.441 99.9118 124.574C99.9118 124.707 99.8685 124.836 99.7908 124.944C99.7908 125.656 99.2154 126.451 98.229 125.711C95.8472 123.62 93.3289 121.689 90.694 119.93C89.3489 118.974 87.7851 118.371 86.1456 118.176C86.9676 120.697 94.6122 127.547 95.2698 128.314C95.4775 128.501 95.6056 128.762 95.6235 129.042C95.6395 129.321 95.5483 129.597 95.3654 129.809C95.1806 130.02 94.9226 130.152 94.6441 130.175C94.3631 130.198 94.0871 130.11 93.8724 129.931C90.831 127.958 85.5154 123.355 83.6796 124.04C81.8438 124.725 87.2964 129.821 88.6664 131.027C96.5302 137.849 94.5026 133.465 103.599 142.727C107.558 138.389 112.105 134.626 117.108 131.547L110.806 127.574ZM229.859 258.629C230.324 254.847 230.9 250.765 231.612 246.518L230.434 244.956C224.954 237.914 223.31 226.708 223.831 217.912C220.899 230.763 218.57 243.394 216.789 255.943L229.859 258.629ZM270.602 164.811C277.809 159.331 289.399 149.878 296.139 143.412L285.179 137.932C275.114 147.332 266.499 158.173 259.615 170.099C249.086 189.439 241.277 210.138 236.407 231.612L275.48 176.346L270.383 165.77C270.314 165.607 270.301 165.427 270.34 165.256C270.379 165.083 270.47 164.928 270.602 164.811ZM252.08 133.739C251.916 134.041 250.025 138.069 247.148 145.11C247.148 145.412 247.669 152.262 247.915 154.673C251.413 153.287 254.71 151.444 257.724 149.193C257.122 146.809 254.409 135.986 254.217 133.548L252.08 133.739ZM261.807 163.167C261.615 162.674 261.423 162.016 261.204 161.249L259.368 162.208C258.327 162.893 258.738 160.811 257.807 166.839C257.807 167.852 257.533 168.976 257.478 170.209C258.738 167.935 260.3 165.496 261.78 163.167H261.807ZM263.341 160.865C268.518 153.523 274.411 146.713 280.932 140.535L260.3 149.494C261.095 151.385 262.245 157.166 263.314 160.865H263.341ZM242.271 176.922C245.011 169.442 247.121 161.085 248.162 158.893C248.1 158.209 248.1 157.521 248.162 156.838C247.764 156.985 247.351 157.077 246.929 157.112C246.664 157.115 246.408 157.022 246.207 156.85C246.004 156.68 245.872 156.441 245.833 156.18C245.614 155.276 245.257 150.7 245.203 149.686C237.231 169.81 230.578 190.431 225.283 211.418C240.764 178.484 238.38 188.019 242.243 176.922H242.271ZM219.611 229.228C225.858 199.28 236.846 161.934 249.34 134.26C244.75 134.262 240.17 134.629 235.64 135.356C233.311 156.18 235.256 155.468 233.695 156.29C232.133 157.112 222.735 160.893 221.337 161.468C221.474 163.578 219.501 223.913 219.584 229.228H219.611ZM251.148 85.4605C249.719 88.5776 249.216 92.039 249.696 95.4341C249.92 96.2985 250.377 97.0836 251.02 97.7023C251.664 98.3216 252.466 98.75 253.338 98.9403C254.208 99.1306 255.117 99.0753 255.959 98.7804C256.802 98.4855 257.544 97.9624 258.108 97.2699C259.416 94.516 260.398 91.6195 261.04 88.6389C260.3 87.6799 252.409 85.7619 251.148 85.4605ZM288.851 112.861C289.851 112.405 290.876 112.003 291.92 111.655C292.621 111.367 293.244 110.923 293.746 110.356C294.249 109.789 294.614 109.115 294.815 108.384C295.016 107.655 295.048 106.888 294.906 106.144C294.765 105.4 294.456 104.698 294.002 104.093C292.276 102.64 290.714 102.723 289.289 104.887C288.385 106.559 288.412 106.696 288.001 106.86C287.882 106.912 287.755 106.938 287.627 106.937C287.499 106.935 287.371 106.906 287.255 106.852C287.138 106.798 287.033 106.718 286.951 106.621C286.867 106.523 286.805 106.409 286.768 106.285C286.362 104.57 286.298 102.791 286.577 101.051C286.905 99.1605 286.96 90.7761 286.905 90.5021C286.104 90.9241 285.207 91.1229 284.302 91.0775C279.343 90.8857 278.357 88.3375 276.384 86.2551C274.11 86.4743 273.644 87.5703 271.068 86.2551C269.863 85.5691 268.755 84.7212 267.78 83.7343C266.993 84.0566 266.232 84.4417 265.506 84.8851C263.864 85.6747 262.012 85.9174 260.222 85.5771C258.432 85.2368 256.797 84.3316 255.56 82.9945C255.258 83.5699 254.984 84.1453 254.738 84.7481C257.256 85.5298 259.626 86.7239 261.752 88.2827C262.218 88.8581 261.533 91.9817 261.369 92.7215C263.663 93.0105 265.885 93.7259 267.917 94.8313C268.328 93.4065 269.232 90.7487 270.657 90.0089C271.086 89.8779 271.543 89.8779 271.972 90.0089C274.438 90.3925 283.289 93.0503 284.357 94.5025C285.289 95.5163 282.631 103.353 281.809 104.641C278.658 109.518 269.424 108.093 267.698 102.394C267.271 100.481 267.271 98.4974 267.698 96.5849C266.903 96.5849 264.52 95.7355 264.246 95.6533C262.355 99.9003 261.807 100.147 259.615 104.723C259.916 104.969 260.41 105.38 260.821 105.654C262.766 106.942 263.177 106.723 263.067 107.271C263.036 107.38 262.965 107.473 262.869 107.533C262.773 107.594 262.658 107.618 262.547 107.6C261.396 107.435 260.273 107.122 259.204 106.668C258.564 106.429 258.037 105.96 257.724 105.353C256.957 103.627 261.204 97.1329 262.876 95.1875C262.547 95.1875 261.78 94.6395 261.204 94.3381C260.437 97.4069 259.916 99.8181 256.957 101.024C256.101 101.347 255.19 101.494 254.276 101.456C253.363 101.418 252.468 101.197 251.642 100.805C251.203 105.627 251.285 113.463 253.587 117.738C254.765 119.957 257.67 120.807 259.533 122.642C260.081 123.163 259.725 123.903 259.533 124.697C256.491 133.164 256.437 133.137 256.601 134.233C257.407 138.781 258.532 143.268 259.971 147.659C260.656 147.357 268.356 143.275 283.426 137.411C283.891 134.315 286.385 117.793 287.179 114.751C287.125 113.683 287.262 113.436 288.851 112.724V112.861ZM269.671 101.681C270.548 104.668 274.685 105.956 277.644 105.134C280.603 104.312 280.795 102.805 282.193 99.2427C282.848 97.8822 283.3 96.4325 283.535 94.9409C282.631 93.9545 272.74 91.9269 271.507 91.7351C269.778 94.6938 269.127 98.1607 269.671 101.544V101.681ZM376.886 266.191C377.928 267.205 376.531 270.52 376.312 273.397C376.312 273.644 376.312 274.712 376.476 274.795C377.983 275.288 379.38 273.014 380.23 271.644C381.079 270.274 381.929 268.41 383.271 268.904C386.011 270.191 392.368 278.631 394.861 279.507C396.122 277.096 388.915 270.219 388.668 269.835C388.563 269.659 388.508 269.456 388.509 269.253C388.51 269.047 388.567 268.844 388.674 268.671C388.782 268.495 388.935 268.354 389.117 268.257C389.3 268.164 389.505 268.123 389.71 268.136C390.203 268.136 390.532 268.575 391.299 269.26C393.633 271.536 396.304 273.44 399.218 274.904C396.576 271.872 393.748 269.009 390.751 266.328C390.603 266.175 390.499 265.986 390.449 265.78C390.449 265.78 391.025 264.328 392.148 264.903C393.737 265.78 401.465 270.246 403.903 271.397C404.232 271.178 404.04 270.849 403.903 270.52C400.04 265.78 391.545 260.026 386.34 256.382C385.729 255.752 385.22 255.032 384.833 254.245C381.227 257.599 377.381 260.686 373.325 263.478C374.574 264.298 375.765 265.205 376.886 266.191ZM313.127 291.098C313.73 290.714 314.168 290.358 314.251 289.865C315.758 278.685 307.373 215.337 307.51 212.843C307.51 212.697 307.54 212.552 307.597 212.417C307.652 212.283 307.736 212.161 307.841 212.058C307.946 211.956 308.07 211.876 308.207 211.822C308.341 211.769 308.487 211.744 308.634 211.747C310.031 211.747 307.565 211.747 342.472 245.175C344.774 247.34 362.365 264.163 365.297 265.287C369.325 264.985 384.477 252.902 386.943 249.093C382.175 239.449 324.361 160.098 304.359 147.96C302.825 147.028 300.194 145.576 297.317 144.042C296.322 144.98 295.251 145.832 294.112 146.59C287.755 152.618 278.905 160.126 272.192 165.77L277.425 176.155C277.505 176.292 277.546 176.448 277.546 176.607C277.546 176.765 277.505 176.921 277.425 177.059C234.928 238.024 235.558 237.339 235.284 237.339C232.56 251.427 230.865 265.693 230.215 280.028C230.215 283.891 230.215 283.563 230.05 283.289C229.886 283.015 230.05 283.48 230.05 283.48C236.681 290.714 302.304 297.454 313.127 291.098ZM161.66 200.321C174.072 202.048 188.101 199.472 190.814 199.362C192.321 192.058 195.325 185.145 199.636 179.059C199.703 178.97 199.798 178.909 199.908 178.89C200.016 178.869 200.127 178.891 200.221 178.949C200.314 179.008 200.383 179.1 200.413 179.207C200.44 179.313 200.428 179.427 200.376 179.525C198.787 182.758 193.471 196.705 192.156 200.102C192.567 201.417 179.771 254.327 183.388 261.451C186.621 267.89 205.445 276 212.24 278.329C213.583 263.074 215.779 247.908 218.816 232.9C217.885 225.009 219.09 178.1 219.447 160.756C219.458 160.554 219.524 160.36 219.64 160.195C219.757 160.03 219.917 159.902 220.104 159.824L232.407 154.646C232.462 148.134 232.875 141.631 233.64 135.164C202.924 140.48 167.14 158.043 164.153 158.071C159.824 158.071 127.657 133.411 120.998 132.424C118.039 131.958 105.326 143.055 103.846 146.124C116.834 164.263 139.658 188.101 150.234 196.348C153.641 198.626 157.575 199.994 161.66 200.321Z" fill="#002DFF"/>
<path d="M272.493 96.2013C272.527 96.0215 272.596 95.8501 272.696 95.6972C272.797 95.5437 272.927 95.4117 273.077 95.3086C273.23 95.206 273.4 95.1337 273.58 95.0964C273.758 95.059 273.943 95.0575 274.123 95.0919C274.304 95.1258 274.475 95.195 274.628 95.2957C274.781 95.3963 274.913 95.5253 275.016 95.6768C275.119 95.8282 275.192 95.9986 275.228 96.1779C275.265 96.3573 275.267 96.5421 275.233 96.7219C274.685 99.462 274.575 100.092 273.37 100.092C273.142 100.093 272.918 100.037 272.717 99.9292C272.516 99.8211 272.344 99.6652 272.221 99.4744C272.096 99.2841 272.02 99.0654 272 98.8382C271.981 98.6111 272.018 98.3829 272.109 98.1741C272.192 97.7357 272.438 96.4479 272.493 96.2013ZM264.109 114.34C262.328 114.861 260.629 114.011 260.684 113.573C260.738 113.135 260.684 113.354 263.095 112.45C264.711 111.847 266.492 109.71 267.123 110.038C267.753 110.367 266.794 112.121 266.575 112.45C265.988 113.339 265.12 114.005 264.109 114.34ZM213.994 88.3101C217.583 103.353 220.214 116.121 220.652 118.669C220.945 119.778 220.999 120.936 220.817 122.067C219.364 125.163 200.595 131.273 198.212 130.068C195.828 128.862 189.635 114.916 182.429 100.531C178.015 100.672 173.597 100.35 169.25 99.5715C164.671 98.7316 160.217 97.3232 155.988 95.3793C146.727 91.1049 136.589 72.8017 135.219 63.5953C134.192 53.5998 136.308 43.5331 141.274 34.798C164.263 -5.06905 231.694 16.3851 226.214 60.6635C224.65 70.7951 220.433 80.3333 213.994 88.3101ZM197.28 120.944C197.28 121.382 197.773 121.327 200.02 120.944C204.616 120.366 209.066 118.945 213.145 116.751C215.063 115.71 215.583 115.491 215.391 115.025C215.2 114.559 214.789 114.724 211.829 115.546C211.555 115.546 203.061 118.286 200.623 119.135C197.472 120.56 197.28 120.56 197.28 120.944ZM197.773 76.3637C194.848 76.5152 191.932 75.9119 189.307 74.6101C186.868 75.7918 184.229 76.5077 181.525 76.7199C186.128 85.2961 195.472 102.777 198.486 112.093L210.103 108.888C207.363 102.147 201.308 86.3647 197.828 76.3637H197.773ZM198.732 74.0895C200.778 73.7807 202.666 72.8092 204.105 71.3246C205.546 69.8396 206.459 67.9235 206.706 65.8695C207.473 60.3895 203.966 54.2519 198.677 55.7041C195.362 56.6083 194.951 59.2387 195.526 62.5541C196.02 64.9653 197.801 71.0207 198.787 73.9799L198.732 74.0895ZM191.279 67.5135C190.987 65.7206 190.313 64.0108 189.307 62.4993C188.827 61.6754 188.126 61.0023 187.283 60.5569C186.441 60.1111 185.491 59.9108 184.539 59.9785C182.511 60.5813 181.635 64.4173 183.306 66.8285C184.914 68.9603 186.911 70.7647 189.197 72.1441C189.985 71.6828 190.61 70.9918 190.992 70.1639C191.373 69.3364 191.494 68.4113 191.334 67.5135H191.279ZM216.46 32.6882C204.185 17.9195 181.087 12.0559 164.4 18.1387C155.335 21.2504 147.711 27.5509 142.946 35.8666C138.221 44.1786 136.201 53.7543 137.164 63.2665C138.425 71.7879 148.124 89.4883 156.646 93.4065C164.436 96.9606 172.937 98.6848 181.498 98.4481C182.429 98.4481 183.416 98.4481 183.772 99.1057C185.388 102.394 188.348 108.751 191.252 114.724C193.259 113.755 195.337 112.949 197.472 112.313C194.293 103.216 184.265 85.3509 179.497 76.6925C175.367 77.0463 171.214 76.3294 167.441 74.6101C166.423 74.0736 165.578 73.2576 165.005 72.2572C164.434 71.2574 164.158 70.1151 164.213 68.9642C164.267 67.8139 164.651 66.703 165.313 65.7614C165.978 64.8204 166.896 64.0875 167.962 63.6501C172.209 61.5677 176.018 66.5545 178.237 70.7467C178.84 71.8427 179.525 73.1305 180.292 74.5827C182.509 74.4373 184.694 73.9854 186.786 73.2401C184.703 71.7755 182.854 70.002 181.306 67.9793C180.438 66.6691 180 65.1223 180.048 63.552C180.098 61.9812 180.632 60.4648 181.58 59.2113C182.324 58.347 183.358 57.7836 184.489 57.6271C185.619 57.4707 186.767 57.7322 187.717 58.3619C189.638 59.5411 191.174 61.2489 192.147 63.2805C193.118 65.3121 193.483 67.5813 193.197 69.8151C192.9 71.076 192.22 72.2149 191.252 73.0757C193.049 73.82 194.978 74.1932 196.924 74.1717C195.828 70.9385 194.047 65.1023 193.581 62.7185C193.288 61.3595 193.225 59.9616 193.389 58.5811C193.601 57.3965 194.152 56.298 194.974 55.4182C195.793 54.5379 196.853 53.9147 198.02 53.6217C204.678 51.7311 209.583 59.1017 208.624 65.9791C208.354 68.4437 207.295 70.7552 205.607 72.5716C203.92 74.388 201.691 75.612 199.253 76.0623C202.76 85.9263 208.24 101.846 210.98 108.641L217.008 107.079C213.145 87.6799 212.679 88.1457 213.227 87.8991C219.454 79.9616 223.435 70.4996 224.762 60.4991C225.408 55.5402 225.002 50.5011 223.573 45.7098C222.143 40.918 219.718 36.4813 216.46 32.6882ZM178.429 74.7471C176.511 71.2673 172.675 63.6501 168.948 65.5133C168.204 65.8138 167.553 66.3119 167.072 66.9541C166.587 67.5962 166.291 68.358 166.208 69.1575C166.263 73.9799 173.771 74.8293 178.538 74.7471H178.429ZM73.5416 86.8306C70.2401 84.8886 66.3398 84.2256 62.5815 84.9673C58.4531 85.0411 54.51 86.6916 51.5598 89.5805C48.6075 92.4695 46.8788 96.3772 46.7194 100.503C49.2004 99.0629 52.1033 98.5209 54.9369 98.9687C61.8143 99.5715 70.8015 103.298 69.5959 109.929C68.6096 115.409 61.3759 114.669 55.896 113.189C50.416 111.71 46.0618 109.025 44.9359 103.736C38.2802 108.586 36.716 117.08 36.442 125.382C36.442 125.498 36.3971 125.61 36.3124 125.692C36.2327 125.774 36.1181 125.821 36.0035 125.821C35.8889 125.821 35.7744 125.774 35.6947 125.692C35.61 125.61 35.5652 125.498 35.5652 125.382C35.3759 116.094 37.0447 106.997 44.637 101.709C44.5573 99.3299 44.9658 96.9601 45.8277 94.7422C46.6895 92.5248 47.9998 90.5056 49.6637 88.8068C51.3316 87.1085 53.3273 85.7664 55.5283 84.8612C57.7293 83.9565 60.0927 83.5077 62.472 83.5425C66.2761 82.9871 70.1529 83.7822 73.4319 85.7894C74.4457 86.2825 73.9799 87.0223 73.5416 86.8306ZM48.5528 106.476C51.649 110.532 60.4169 112.641 64.4721 111.956C65.9791 111.71 67.2122 111.08 67.541 109.518C68.5274 104.038 59.0743 101.051 53.4299 100.859C51.1328 100.683 48.8417 101.271 46.9088 102.531C47.118 103.964 47.6809 105.321 48.5528 106.476ZM86.0907 54.7999C83.1589 51.1831 85.1317 44.8812 93.3243 44.8538C96.5027 44.8538 98.0372 48.087 97.818 51.1831C97.3248 58.5537 89.0226 58.3345 86.0907 54.7999ZM95.8999 51.0461C95.8999 49.2378 95.0505 46.8814 93.1599 46.9088C88.7485 46.9088 86.7209 48.9638 86.7209 51.2379C86.8306 56.4165 96.2561 59.1017 95.8999 51.0461ZM97.0233 361.68C121.108 352.063 132.287 398.615 151.96 438.619C152.086 440.299 152.029 441.992 151.796 443.661C151.796 447.853 151.33 475.609 148.892 478.76C148.234 480.021 145.467 478.76 144.179 477.966C133.242 471.196 122.935 463.455 113.381 454.84C113.299 454.746 113.24 454.639 113.201 454.52C113.164 454.402 113.15 454.278 113.162 454.155C108.066 446.894 88.9677 409.082 84.3372 390.121C81.1039 376.695 84.3098 366.694 97.0233 361.68ZM88.4197 396.478C101.314 394.825 113.781 390.754 125.163 384.477C118.752 372.339 110.833 358.502 97.7632 363.708C83.2137 369.489 83.5151 381.463 88.4197 396.396V396.478ZM134.013 467.718C134.856 467.013 135.774 466.405 136.753 465.91C140.457 464.028 144.734 463.615 148.727 464.759C149.001 461.498 150.563 440.291 150.563 440.099C130.04 447.606 136.37 444.346 116.039 454.456C118.176 456.484 126.204 462.101 134.013 467.663V467.718ZM119.875 388.422C117.204 389.882 114.459 391.208 111.655 392.395C117.937 402.259 123.485 412.573 128.259 423.248C132.863 432.865 132.698 432.81 137.384 443.305C140.124 442.428 142.864 441.606 145.604 440.784C142.644 434.893 121.601 391.82 119.875 388.368V388.422ZM136.315 443.579C127.41 427.604 118.341 407.739 110.559 392.752C107.819 393.902 105.079 394.834 102.339 395.656C103.791 398.396 108.038 405.684 109.162 407.794C110.285 409.904 121.546 432.098 122.341 433.797C123.601 436.537 127.054 444.181 128.122 446.62C130.917 445.387 133.602 444.455 136.425 443.524L136.315 443.579ZM127.136 446.976C125.465 443.935 118.587 431.166 117.738 429.522C116.45 426.974 102.092 397.629 101.298 395.93C98.777 396.642 96.1192 397.245 94.4203 397.574C99.4346 411.274 113.874 437.66 119.08 450.675C123.821 448.456 124.889 447.908 127.246 446.921L127.136 446.976ZM125.465 385.271L120.56 388.011C130.444 404.844 139.053 422.391 146.316 440.51L150.426 439.249C134.507 405.328 133.767 400.889 125.574 385.217L125.465 385.271ZM114.176 453.059L118.313 451.086C113.847 442.318 99.8729 419.823 93.4887 397.766C91.9543 398.04 90.4473 398.286 88.9951 398.478C96.0369 417.266 104.49 435.494 114.285 453.004L114.176 453.059ZM200.02 470.842C198.928 469.937 198.148 468.713 197.789 467.341C197.431 465.969 197.511 464.519 198.02 463.197C198.253 461.288 199.127 459.514 200.502 458.169C201.876 456.824 203.669 455.986 205.582 455.797C207.496 455.605 209.418 456.07 211.03 457.117C212.644 458.162 213.854 459.729 214.46 461.553C217.967 459.279 221.776 456.868 225.42 454.566C222.68 450.922 214.624 452.538 213.802 455.525C213.784 455.642 213.72 455.747 213.626 455.815C213.531 455.884 213.412 455.913 213.295 455.895C213.179 455.877 213.076 455.813 213.005 455.719C212.937 455.623 212.907 455.505 212.925 455.388C213.336 450.62 223.255 447.826 227.256 453.443C230.79 451.278 235.174 448.648 238.846 446.647C235.695 443.907 228.653 445.442 227.886 448.291C227.849 448.389 227.781 448.47 227.689 448.522C227.6 448.572 227.493 448.59 227.393 448.57C227.29 448.549 227.198 448.495 227.133 448.412C227.068 448.333 227.034 448.23 227.036 448.127C227.393 443.688 236.572 440.702 240.736 445.579C242.481 444.601 244.317 443.793 246.216 443.168C246.564 443.024 246.945 442.983 247.315 443.051C247.685 443.12 248.027 443.293 248.299 443.551C255.231 452.182 278.603 474.595 289.399 477.198C289.67 477.24 289.926 477.351 290.141 477.523C290.355 477.694 290.52 477.918 290.62 478.173C290.721 478.429 290.753 478.708 290.711 478.977C290.668 479.249 290.557 479.504 290.385 479.719C288.015 482.126 285.3 484.167 282.33 485.775C285.07 488.515 287.207 490.981 288.796 492.762C289.618 493.638 290.056 510.407 289.344 514.109C289.239 514.467 289.004 514.781 288.686 514.985C285.234 517.342 240.764 536.577 236.215 534.001C233.174 532.272 196.869 494.488 196.294 493.337C195.417 491.529 195.718 479.473 195.773 474.65C195.992 473.198 198.705 471.636 200.02 470.842ZM287.7 507.039V500.927C276.329 506.407 250.299 517.586 240.435 520.71C237.914 521.532 237.695 521.422 236.38 520.71C228.845 515.887 202.239 485.912 197.362 481.336V487.117C212.158 501.943 237.284 527.918 237.75 526.439C240.462 526.274 285.344 508.135 287.7 507.039ZM200.705 461.608C199.721 463.268 199.191 465.158 199.171 467.088C199.18 467.702 199.33 468.305 199.611 468.853C199.892 469.399 200.294 469.874 200.787 470.239C203.089 468.704 207.445 465.855 212.597 462.512C209.774 456.95 203.5 456.868 200.815 461.608H200.705ZM288.385 479.144C276.713 475.691 254.546 454.319 247.093 445.058C245.301 445.558 243.57 446.266 241.942 447.168C244.682 452.264 241.75 457.854 240.709 457.059C240.134 456.621 241.175 456.457 241.339 453.771C241.41 451.81 240.965 449.865 240.051 448.127C236.27 450.1 231.831 452.675 228.078 454.84C230.379 459.964 227.612 465.033 226.653 464.293C225.694 463.553 227.091 463.718 227.256 461.032C227.322 459.272 226.986 457.518 226.269 455.909C222.406 458.183 218.46 460.539 214.843 462.759C215.4 464.124 215.622 465.604 215.49 467.072C215.355 468.54 214.871 469.956 214.076 471.198C214.04 471.244 213.996 471.284 213.944 471.314C213.893 471.342 213.837 471.362 213.779 471.369C213.72 471.376 213.661 471.374 213.603 471.358C213.547 471.342 213.494 471.316 213.446 471.28C213.4 471.244 213.359 471.2 213.332 471.147C213.302 471.097 213.282 471.04 213.275 470.981C213.268 470.924 213.27 470.864 213.286 470.807C213.302 470.75 213.327 470.696 213.364 470.65C213.857 469.561 214.099 468.376 214.076 467.181C214.053 465.987 213.763 464.814 213.227 463.745C206.843 467.636 201.691 470.896 200.102 471.965C200.404 472.239 228.982 497.666 238.709 505.231C245.093 503.557 278.603 486.925 288.385 479.144ZM287.344 494.406C274.932 499.886 246.737 512.599 240.243 513.835C239.12 514.054 238.681 514.134 236.544 512.435C227.42 505.121 197.746 474.075 197.472 474.404C197.458 474.486 197.458 474.568 197.472 474.65V480.13C203.582 485.035 237.558 520.71 238.106 519.011C240.846 519.011 285.371 500.847 287.645 499.831C287.7 498.68 287.453 495.611 287.344 494.406ZM237.448 532.163C240.188 533.727 281.919 516.764 287.508 513.312C287.718 511.563 287.819 509.809 287.81 508.051C275.808 513.969 240.901 528.71 237.695 528.576C233.01 528.327 199.883 491.035 197.527 488.432C197.499 489.832 197.639 491.23 197.938 492.597C198.403 493.501 235.64 531.151 237.448 532.163ZM464.458 377.709C464.267 380.641 464.13 383.189 464.13 385.573C464.13 385.936 463.985 386.285 463.728 386.541C463.471 386.799 463.123 386.943 462.76 386.943C462.396 386.943 462.048 386.799 461.791 386.541C461.534 386.285 461.39 385.936 461.39 385.573C461.39 383.025 461.527 380.504 461.718 377.517C461.744 377.154 461.913 376.816 462.188 376.577C462.463 376.336 462.821 376.218 463.184 376.243C463.548 376.268 463.886 376.437 464.125 376.711C464.364 376.988 464.484 377.346 464.458 377.709ZM46.9636 322.772C47.1429 322.783 47.3173 322.829 47.4817 322.907C47.6411 322.987 47.7856 323.096 47.9001 323.233C48.0197 323.368 48.1094 323.526 48.1642 323.695C48.219 323.866 48.2389 324.046 48.2239 324.224C48.0595 326.745 47.8951 329.458 47.8951 332.088C47.8951 332.451 47.7507 332.8 47.4916 333.056C47.2375 333.314 46.8888 333.458 46.5251 333.458C46.1615 333.458 45.8127 333.314 45.5587 333.056C45.2996 332.8 45.1552 332.451 45.1552 332.088C45.1552 329.348 45.3195 326.608 45.5139 324.032C45.5238 323.854 45.5687 323.679 45.6483 323.519C45.7281 323.356 45.8376 323.213 45.9721 323.096C46.1067 322.978 46.2661 322.889 46.4355 322.834C46.6049 322.779 46.7842 322.756 46.9636 322.772ZM471.555 370.886C471.192 370.886 470.843 370.742 470.586 370.484C470.329 370.229 470.185 369.879 470.185 369.516C470.185 369.153 470.329 368.804 470.586 368.548C470.843 368.29 471.192 368.146 471.555 368.146C474.87 368.146 477.638 368.393 480.378 368.338C480.744 368.338 481.095 368.482 481.356 368.738C481.618 368.994 481.768 369.343 481.775 369.708C481.775 370.071 481.631 370.421 481.374 370.676C481.117 370.934 480.769 371.078 480.405 371.078C477.583 371.133 474.487 371.023 471.555 370.886ZM55.4576 314.662C58.7456 314.662 61.5129 314.853 64.2803 314.881C64.6435 314.881 64.9927 315.025 65.2483 315.283C65.5063 315.538 65.6504 315.888 65.6504 316.251C65.6504 316.614 65.5063 316.963 65.2483 317.219C64.9927 317.477 64.6435 317.621 64.2803 317.621C61.3211 317.621 58.2523 317.621 55.2932 317.402C54.93 317.379 54.5897 317.214 54.3481 316.943C54.108 316.671 53.9849 316.313 54.0053 315.949C54.0283 315.586 54.1927 315.246 54.4642 315.004C54.7382 314.762 55.0944 314.639 55.4576 314.662ZM465.198 353.953C465.034 356.474 464.869 359.187 464.869 361.817C464.862 362.178 464.716 362.522 464.46 362.778C464.205 363.034 463.861 363.18 463.499 363.187C463.136 363.187 462.787 363.043 462.531 362.785C462.274 362.529 462.129 362.18 462.129 361.817C462.129 359.077 462.294 356.337 462.458 353.761C462.484 353.398 462.652 353.06 462.927 352.821C463.202 352.581 463.561 352.462 463.924 352.487C464.287 352.512 464.626 352.681 464.865 352.955C465.104 353.232 465.224 353.59 465.198 353.953ZM45.8974 308.332C45.8974 305.592 46.0618 302.852 46.2511 300.277C46.276 299.913 46.4454 299.576 46.7194 299.336C46.9934 299.096 47.3521 298.977 47.7158 299.003C48.0795 299.028 48.4182 299.197 48.6573 299.47C48.8965 299.747 49.0161 300.105 48.9911 300.468C48.8268 302.989 48.6624 305.702 48.6624 308.332C48.6624 308.695 48.5179 309.045 48.2588 309.3C48.0047 309.558 47.656 309.702 47.2923 309.702C46.9286 309.702 46.575 309.558 46.3159 309.303C46.0518 309.047 45.9024 308.697 45.8974 308.332ZM444.977 370.53C444.797 370.523 444.62 370.48 444.457 370.405C444.293 370.329 444.146 370.222 444.024 370.09C443.902 369.957 443.807 369.804 443.745 369.633C443.683 369.464 443.654 369.286 443.662 369.105C443.69 368.747 443.852 368.411 444.116 368.167C444.38 367.925 444.727 367.79 445.087 367.79C448.402 367.927 451.169 368.037 453.937 367.982C454.3 367.982 454.649 368.126 454.906 368.384C455.162 368.64 455.307 368.989 455.307 369.352C455.307 369.715 455.162 370.064 454.906 370.32C454.649 370.578 454.3 370.722 453.937 370.722C451.005 370.777 447.936 370.667 444.977 370.53ZM28.8795 314.305C31.6195 314.442 34.6635 314.525 37.7024 314.525C37.8817 314.518 38.0611 314.547 38.2354 314.611C38.4048 314.676 38.5542 314.774 38.6888 314.897C38.8183 315.022 38.9229 315.173 38.9926 315.34C39.0624 315.506 39.1022 315.687 39.1022 315.867C39.1022 316.232 38.9578 316.584 38.6987 316.847C38.4446 317.107 38.0959 317.258 37.7322 317.265C34.6086 317.265 32.0879 317.265 28.77 317.045C28.5906 317.038 28.4162 316.995 28.2518 316.92C28.0874 316.845 27.938 316.737 27.8184 316.605C27.6939 316.472 27.5992 316.319 27.5394 316.148C27.4747 315.979 27.4498 315.801 27.4548 315.621C27.4896 315.264 27.654 314.934 27.918 314.691C28.1771 314.447 28.5208 314.31 28.8795 314.305ZM507.942 289.344C507.586 289.618 430.318 278.165 427.003 276.137C426.819 276.003 426.672 275.824 426.577 275.619C426.481 275.413 426.439 275.185 426.455 274.959C426.455 271.424 431.085 238.243 433.305 229.968C433.579 228.954 433.853 227.941 434.483 227.584C438.675 225.064 512.545 238.983 516.957 241.832C517.076 241.903 517.18 241.999 517.26 242.111C517.34 242.225 517.396 242.353 517.423 242.49C518.354 245.805 510.326 287.7 507.942 289.344ZM515.751 243.148C510.49 240.764 443.443 228.489 435.771 229.448C433.907 234.243 428.921 269.369 428.592 274.521C432.4 275.644 506.901 288.44 507.175 288.495C507.449 288.549 507.476 288.878 508.052 287.152C510.463 279.918 515.888 249.34 515.751 243.148Z" fill="#002DFF"/>
<path d="M420.975 278.576C420.826 278.299 420.759 277.984 420.783 277.672C420.783 273.315 427.03 224.954 429.249 221.091C429.423 220.806 429.669 220.572 429.963 220.413C430.257 220.254 430.587 220.176 430.921 220.186C440.1 219.063 517.532 234.188 522.629 237.722C523.341 238.216 523.231 239.449 523.149 240.764C522.711 247.97 514.929 295.372 512.189 295.098C511.888 295.098 511.997 294.879 512.71 296.331C516.984 305.126 525.095 333.294 524.93 338.965C524.93 341.349 524.382 344.445 522.026 344.281C505.12 342.199 422.235 329.047 398.397 324.142C397.465 323.95 396.863 323.101 396.89 321.703C397.171 319.374 397.877 317.118 398.972 315.045C402.315 308.771 416.18 283.919 420.975 278.576ZM512.025 294.249C514.162 291.509 522.026 244.298 521.423 239.065C515.395 235.941 439.004 221.173 431.003 222.378C428.811 228.406 423.139 271.945 422.783 277.178C432.483 280.521 499.64 291.372 512.025 294.249ZM510.819 295.071C508.518 294.495 430.126 281.371 422.947 279.48C419.029 283.124 401.329 314.607 400.178 317.292C415.906 320.032 509.203 335.623 522.93 337.705C522.738 329.403 514.217 300.386 510.819 295.071Z" fill="#002DFF"/>
<path d="M500.515 323.484C498.131 323.128 447.551 317.045 429.275 312.086C429.163 312.057 429.066 311.983 429.007 311.885C428.948 311.785 428.931 311.664 428.96 311.552C428.989 311.44 429.062 311.342 429.162 311.284C429.262 311.225 429.382 311.207 429.494 311.237C433.084 311.976 476.869 317.813 500.57 322.635C500.636 322.624 500.703 322.626 500.767 322.644C500.831 322.662 500.89 322.694 500.939 322.74C500.989 322.784 501.028 322.838 501.053 322.9C501.079 322.962 501.09 323.028 501.085 323.094C501.081 323.16 501.062 323.226 501.029 323.284C500.996 323.34 500.95 323.391 500.895 323.427C500.84 323.466 500.777 323.491 500.712 323.5C500.646 323.51 500.579 323.505 500.515 323.484ZM463.553 132.835C464.576 135.147 465.437 137.528 466.128 139.959C466.169 140.349 466.062 140.741 465.827 141.055C463.059 145.22 434.7 177.196 427.302 181.689C426.289 182.32 425.083 182.758 424.343 181.854C418.969 175.167 411.955 169.985 403.985 166.811C397.498 164.516 390.696 163.231 383.819 163.003C378.339 162.509 377.38 161.961 375.27 158.372C372.781 153.648 369.479 149.4 365.515 145.823C360.461 141.404 354.852 137.664 348.829 134.698C348.558 134.545 348.346 134.305 348.227 134.017C348.108 133.729 348.088 133.41 348.171 133.109C349.097 130.752 350.322 128.524 351.815 126.478C350.829 126.15 349.733 125.848 349.733 124.862C349.733 122.122 373.626 87.5431 380.257 81.0219C380.942 80.3369 381.928 79.4327 382.832 79.4875C396.532 80.2547 409.876 93.1875 417.603 104.476C426.453 104.147 432.18 103.353 442.263 107.6C449.381 110.621 455.799 115.081 461.114 120.697C461.936 121.546 467.526 127.465 467.608 127.931C467.69 128.396 467.526 128.396 463.553 132.835ZM353.953 132.068C365.378 134.013 372.667 143.521 378.037 153.851C380.421 158.454 380.202 158.673 382.723 158.619C387.131 158.369 391.552 158.534 395.929 159.112C399.14 159.592 402.297 160.381 405.355 161.468C412.315 163.934 420.288 171.825 424.535 177.689C424.625 177.81 424.74 177.91 424.872 177.983C425.003 178.056 425.149 178.101 425.299 178.114C425.449 178.126 425.6 178.108 425.743 178.058C425.885 178.008 426.015 177.93 426.124 177.826C435.029 168.647 450.784 152.536 458.703 143.275C459.086 142.864 458.429 142.261 458.045 142.699C452.921 148.179 439.687 161.304 425.494 175.579C420.699 169.469 413.301 162.071 405.985 159.495C401.996 158.073 397.844 157.152 393.628 156.755C389.679 156.456 385.713 156.456 381.764 156.755C380.147 154.892 372.146 133.739 354.007 131.383C353.955 131.422 353.911 131.472 353.88 131.531C353.849 131.589 353.832 131.653 353.829 131.719C353.826 131.785 353.839 131.85 353.864 131.911C353.891 131.971 353.93 132.025 353.98 132.068H353.953ZM382.86 81.7069C377.38 85.5429 355.076 118.56 352.172 124.341C357.211 125.938 362.077 128.04 366.694 130.616C371.066 132.808 374.894 135.947 377.899 139.805C380.904 143.664 383.011 148.144 384.065 152.919C393.902 136.918 407.629 119.3 416.753 106.339C416.205 105.983 400.807 82.7755 382.86 81.7069ZM441.66 109.107C431.659 105.079 426.124 106.011 417.849 106.367C409.629 120.396 394.861 140.178 385.134 153.139C394.112 151.014 403.559 152.314 411.63 156.783C416.479 159.523 422.398 166.099 426.042 170.181C431.303 165.962 461.662 133.63 466.539 128.15C459.032 119.656 452.099 113.272 441.66 108.997V109.107ZM491.802 178.785C492.479 178.31 493.28 178.041 494.107 178.012C494.934 177.983 495.751 178.194 496.46 178.621C496.976 178.851 497.442 179.181 497.831 179.591C498.22 180.002 498.524 180.484 498.727 181.012C498.929 181.54 499.025 182.103 499.01 182.668C498.995 183.233 498.869 183.79 498.638 184.306C498.408 184.823 498.078 185.288 497.668 185.677C497.258 186.066 496.775 186.37 496.247 186.573C495.719 186.775 495.156 186.872 494.591 186.856C494.026 186.841 493.469 186.715 492.953 186.484C492.128 186.304 491.377 185.877 490.801 185.26C490.224 184.644 489.848 183.867 489.724 183.032C489.599 182.197 489.731 181.343 490.102 180.585C490.473 179.826 491.066 179.199 491.802 178.785ZM493.61 184.265C495.528 184.868 496.679 184.265 497.145 183.333C498.022 181.388 496.926 178.401 494.076 179.278C492.076 180.018 490.459 183.388 493.61 184.402V184.265ZM352.473 53.4027C351.678 55.0193 347.979 54.4165 346.363 53.8959C345.513 53.6219 344.965 53.3205 344.883 52.4985C344.637 50.4435 344.363 32.6335 345.294 30.9073C345.39 30.7262 345.538 30.5778 345.719 30.4803C345.899 30.3828 346.104 30.3406 346.308 30.3593C349.231 30.3511 352.14 30.776 354.939 31.6197C356.062 32.3047 353.459 51.5943 352.473 53.4027ZM354.364 32.2773C351.832 31.9152 349.273 31.796 346.719 31.9211C346.555 33.9487 346.993 51.5121 347.02 51.7861C348.178 52.2011 349.414 52.351 350.637 52.2245C350.829 51.5943 351.158 49.8955 351.569 47.7583C352.776 42.6517 353.709 37.4838 354.364 32.2773ZM494.46 155.659C494.197 155.794 493.906 155.864 493.61 155.864C493.315 155.864 493.024 155.794 492.761 155.659C491.702 155.006 490.863 154.052 490.35 152.919C490.28 152.738 490.259 152.542 490.288 152.35C490.316 152.158 490.394 151.976 490.514 151.823C491.829 150.262 506.187 133.63 507.941 134.671C510.094 136.065 512.137 137.622 514.051 139.329C514.128 139.398 514.19 139.483 514.232 139.577C514.275 139.671 514.297 139.773 514.297 139.877C514.352 141.302 498.405 154.07 494.46 155.659ZM507.612 135.383C505.612 136.836 498.871 145.165 492.624 152.536C492.893 152.959 493.225 153.338 493.61 153.659C500.179 149.456 506.45 144.805 512.379 139.74C510.893 138.179 509.3 136.724 507.612 135.383ZM464.566 74.9391C463.964 64.3079 457.771 59.3759 451.305 58.1155C453.141 64.8559 452.839 73.6239 446.181 74.7473C443.003 75.2679 441.441 73.6239 439.139 71.7059C429.303 63.4859 437.249 55.2659 448.346 55.8413C444.208 44.4977 434.646 35.2639 421.959 34.9625C421.843 34.9625 421.732 34.9164 421.65 34.8342C421.567 34.7518 421.521 34.6403 421.521 34.5241C421.521 34.4079 421.567 34.2963 421.65 34.2141C421.732 34.1319 421.843 34.0857 421.959 34.0857C435.659 33.8117 446.428 43.6757 450.675 56.0057C457.99 57.2661 465.251 62.7461 465.443 74.7747C465.454 74.8325 465.454 74.8912 465.441 74.9485C465.429 75.0058 465.406 75.0601 465.373 75.1089C465.34 75.1573 465.298 75.1986 465.248 75.2305C465.2 75.2624 465.144 75.2848 465.087 75.2953C465.029 75.3062 464.97 75.3052 464.913 75.2933C464.856 75.2813 464.802 75.2579 464.753 75.225C464.704 75.1916 464.663 75.1498 464.631 75.1005C464.599 75.0517 464.577 74.9969 464.566 74.9391ZM448.976 57.7867C444.893 57.5127 438.81 58.7731 437.139 62.4721C436.18 64.5819 437.139 67.1849 440.537 70.0345C441.459 70.9586 442.511 71.7432 443.66 72.3635C447.77 74.1171 452.319 69.0481 448.976 57.7867ZM441.139 445.305C443.787 444.595 446.549 444.424 449.264 444.798C451.979 445.172 454.591 446.086 456.948 447.485C459.304 448.883 461.357 450.739 462.985 452.945C464.614 455.148 465.785 457.655 466.43 460.32C467.647 465.855 466.616 471.645 463.564 476.418C460.511 481.192 455.688 484.558 450.154 485.775C444.62 486.992 438.829 485.962 434.056 482.909C429.282 479.856 425.917 475.034 424.699 469.499C424.179 466.83 424.193 464.085 424.739 461.421C425.285 458.756 426.353 456.228 427.881 453.979C429.41 451.73 431.368 449.805 433.643 448.317C435.919 446.828 438.467 445.805 441.139 445.305ZM432.673 467.636C433.772 472.02 436.404 475.867 440.093 478.479C443.781 481.094 448.283 482.302 452.784 481.884C456.916 480.27 460.347 477.249 462.472 473.355C464.596 469.46 465.28 464.942 464.402 460.594C463.377 456.103 460.769 452.13 457.056 449.403C453.343 446.677 448.773 445.378 444.181 445.743C440.008 447.467 436.577 450.607 434.492 454.612C432.407 458.617 431.802 463.229 432.782 467.636H432.673Z" fill="#002DFF"/>
<path d="M404.643 453.114C407.028 452.292 409.585 452.093 412.069 452.538C413.098 450.178 414.365 447.928 415.85 445.825C414.069 444.209 409.192 439.715 410.37 437.605C414.563 432.589 419.541 428.287 425.111 424.864C427.437 423.561 429.998 422.732 432.646 422.426C434.4 422.672 438.565 429.495 439.496 431.029C440.099 431.029 442.236 430.344 442.4 430.262C442.4 428.289 442.976 421.165 444.757 420.343C446.748 419.611 448.816 419.103 450.922 418.836C452.867 418.535 470.376 421.741 471.664 424.097C472.513 425.686 470.54 431.687 469.965 433.358C471.442 434.171 472.862 435.087 474.212 436.098C476.952 438.044 476.212 437.962 476.705 437.742C477.301 437.457 477.94 437.272 478.596 437.194C480.785 435.911 483.351 435.427 485.857 435.824C488.378 436.646 494.323 450.182 495.282 453.662C495.596 454.539 495.681 455.482 495.529 456.402C494.871 458.21 490.487 459.662 488.652 460.238C489.159 463.763 489.159 467.343 488.652 470.869C491.063 471.527 496.077 473.006 495.803 475.472C495.529 477.938 489.118 494.214 486.46 495.502C485.004 496.317 483.394 496.817 481.733 496.972C480.072 497.127 478.397 496.935 476.815 496.406C475.924 495.96 475.063 495.458 474.239 494.899C473.143 495.721 471.992 496.461 470.814 497.173C471.664 499.283 473.554 503.996 472.951 506.133C472.65 507.259 471.746 507.612 470.485 508.081C467.006 509.341 448.264 513.835 445.414 513.342C444.346 513.177 443.77 512.051 443.442 510.985C442.833 508.549 442.475 506.063 442.373 503.557C440.966 503.418 439.567 503.208 438.181 502.93C437.334 504.414 436.252 505.759 434.975 506.9C433.578 507.886 432.399 507.393 430.81 506.382C430.043 507.368 428.892 508.738 427.659 508.873C424.563 509.232 411.767 497.173 410.452 494.707C409.356 492.652 413.356 488.98 415.137 487.364C413.211 484.464 411.698 481.311 410.644 477.993C408.667 478.29 406.667 478.402 404.671 478.322C403.766 478.322 402.725 477.993 402.342 477.144C400.67 473.335 401.163 458.895 402.342 455.224C402.506 454.155 403.739 453.443 404.643 453.114ZM403.986 455.635C403.054 459.197 402.753 472.65 404.123 476.13C406.492 476.363 408.882 476.253 411.22 475.801C411.469 475.758 411.725 475.81 411.938 475.947C412.151 476.084 412.305 476.297 412.37 476.541C413.461 480.244 415.155 483.745 417.385 486.898C417.543 487.108 417.615 487.368 417.584 487.631C417.554 487.891 417.422 488.129 417.22 488.295C415.297 489.818 413.664 491.675 412.397 493.775C413.767 496.022 424.481 505.834 427.44 506.656C427.878 506.656 429.084 505.012 429.385 504.573C430.398 503.049 431.312 501.47 432.125 499.831C432.244 499.592 432.448 499.407 432.696 499.313C432.944 499.213 433.22 499.213 433.468 499.313C441.414 502.297 444.428 500.543 444.428 502.516C444.424 505.47 444.906 508.405 445.853 511.204C452.292 510.502 458.633 509.087 464.759 506.985C464.463 504.055 463.647 501.206 462.348 498.57C461.526 496.735 464.814 497.255 470.951 491.008C471.149 490.825 471.408 490.723 471.677 490.723C471.946 490.723 472.206 490.825 472.403 491.008C475.143 493.255 478.705 495.447 479.418 495.091C480.815 494.406 487.254 479.801 487.638 476.842C485.689 475.484 483.476 474.55 481.144 474.102C480.895 474.031 480.681 473.874 480.539 473.657C480.399 473.44 480.34 473.18 480.377 472.924C481.048 469.045 481.048 465.076 480.377 461.197C480.335 460.957 480.385 460.713 480.517 460.51C480.65 460.307 480.854 460.16 481.089 460.101C483.155 459.56 485.143 458.758 487.008 457.717C487.61 457.279 487.556 457.306 487.501 456.84C485.727 450.445 482.883 444.394 479.089 438.948C477.609 438.537 473.609 441.469 472.239 442.51C472.096 442.65 471.904 442.727 471.705 442.727C471.505 442.727 471.313 442.65 471.17 442.51C469.911 441.204 468.556 439.996 467.115 438.893C462.95 435.742 461.827 436.153 462.183 435.057C463.443 432.308 464.15 429.338 464.266 426.317C463.841 425.963 463.359 425.686 462.841 425.495C460.283 424.483 457.655 423.659 454.977 423.029C451.731 422.124 448.395 421.581 445.031 421.412C444.455 421.659 443.935 424.152 443.798 424.919C442.784 430.399 443.469 431.523 442.674 431.605C434.865 432.372 433.276 434.537 432.728 433.578C431.209 430.92 429.438 428.415 427.44 426.097C426.865 425.522 426.892 425.248 425.166 426.234C420.009 429.605 415.39 433.733 411.466 438.482C411.055 439.195 414.617 442.976 417.22 445.195C418.124 445.99 416.836 446.346 414.48 450.84C412.123 455.333 412.672 456.594 411.411 456.32C408.981 455.737 406.481 455.507 403.986 455.635ZM23.7035 226.68C29.4475 224.334 35.4655 222.741 41.6181 221.94C46.1117 221.228 51.4024 220.515 55.8686 219.94C51.5668 213.857 38.8282 198.458 36.691 194.704C36.0883 193.691 37.2341 192.266 38.0859 191.416C42.8535 186.32 52.06 184.402 59.1292 183.306C63.1844 182.648 80.1176 180.566 82.9946 181.936C86.447 183.58 111.984 221.94 112.751 227.776C112.751 228.763 112.422 229.146 111.463 229.502C107.435 230.982 89.2692 233.284 85.214 234.243C90.694 243.833 115.053 276.247 117.436 280.823C118.012 281.973 117.656 282.658 116.971 282.878C114.505 283.857 111.968 284.645 109.381 285.234C108.394 285.535 106.23 284.193 103.079 282.275C88.9404 273.781 28.2768 233.722 23.6187 228.543C23.4892 228.422 23.3896 228.274 23.3199 228.11C23.2551 227.946 23.2252 227.77 23.2352 227.593C23.2401 227.417 23.29 227.243 23.3697 227.086C23.4494 226.928 23.564 226.79 23.7035 226.68ZM82.5836 259.56C105.874 274.932 113.737 279.425 114.011 279.617C110.258 273.89 86.9402 241.942 82.9398 234.297C82.8715 234.149 82.8347 233.989 82.8347 233.825C82.8347 233.663 82.8735 233.501 82.9442 233.354C83.015 233.206 83.1176 233.078 83.2456 232.975C83.3712 232.873 83.5196 232.799 83.6795 232.763C86.4196 231.777 106.367 229.639 111.08 227.968C110.477 222.872 85.5976 184.347 82.5836 182.813C79.5696 181.278 50.3338 184.758 44.8513 188.676C47.7307 194.293 63.6228 213.967 66.1984 218.542C66.719 219.474 66.8834 220.378 65.8696 220.625C64.8558 220.871 39.1023 223.885 33.4828 225.721C40.3328 231.448 74.9116 254.409 82.5836 259.451V259.56ZM258.355 92.0367C258.355 92.2833 258.19 92.5847 257.779 94.1739C257.672 94.5186 257.434 94.8081 257.117 94.9819C256.802 95.1553 256.43 95.1996 256.08 95.1055C255.731 95.0038 255.437 94.7677 255.263 94.4489C255.087 94.1305 255.046 93.7554 255.149 93.4067C255.423 92.3381 255.669 91.4339 255.834 90.9955C255.994 90.6946 256.259 90.4639 256.581 90.3488C256.9 90.2332 257.252 90.2412 257.567 90.3712C257.882 90.5013 258.138 90.7439 258.281 91.0518C258.428 91.3596 258.455 91.7109 258.355 92.0367Z" fill="#002DFF"/>
</svg>
