<svg width="24" height="24" viewBox="0 0 24 24" fill="none" xmlns="http://www.w3.org/2000/svg">
<path fill-rule="evenodd" clip-rule="evenodd" d="M17.8779 8.27749C19.1732 9.65836 19.991 11.1945 20.3667 12C19.991 12.8055 19.1732 14.3416 17.8779 15.7225C16.4381 17.2575 14.5108 18.5 12 18.5C9.48923 18.5 7.562 17.2575 6.12217 15.7225C4.82689 14.3416 4.00909 12.8055 3.63334 12C4.00909 11.1945 4.8269 9.65836 6.12217 8.27749C7.562 6.7425 9.48923 5.5 12 5.5C14.5108 5.5 16.4381 6.7425 17.8779 8.27749ZM21.8564 11.6539C21.9534 11.8754 21.9534 12.1246 21.8564 12.3461C21.1844 13.8812 18.1219 20 12 20C5.87815 20 2.81565 13.8812 2.14364 12.3461C2.04668 12.1246 2.04668 11.8754 2.14364 11.6539C2.81565 10.1188 5.87815 4 12 4C18.1219 4 21.1844 10.1188 21.8564 11.6539ZM12 15C13.6568 15 15 13.6569 15 12C15 10.3431 13.6568 9 12 9C10.3431 9 8.99998 10.3431 8.99998 12C8.99998 13.6569 10.3431 15 12 15Z" fill="#000B26" fill-opacity="0.72"/>
</svg>
