<?xml version="1.0" encoding="UTF-8"?><!DOCTYPE svg PUBLIC "-//W3C//DTD SVG 1.1//EN" "http://www.w3.org/Graphics/SVG/1.1/DTD/svg11.dtd"><svg xmlns="http://www.w3.org/2000/svg" xmlns:xlink="http://www.w3.org/1999/xlink"><defs/><symbol id="arrow">
	<path fill-rule="evenodd" clip-rule="evenodd" d="M8.47 5.47a.75.75 0 0 1 1.06 0l6 6a.75.75 0 0 1 0 1.06l-6 6a.75.75 0 0 1-1.06-1.06L13.94 12 8.47 6.53a.75.75 0 0 1 0-1.06Z" fill="#002DFF"/>
</symbol><symbol id="bell">
	<path fill-rule="evenodd" clip-rule="evenodd" d="M5.073 15.428c.318-.426.734-.982 1.061-1.995.333-1.03.567-2.491.71-4.833C7.016 5.733 9.275 3.5 12 3.5h.498c2.458 0 4.496 2.005 4.63 4.578.133 2.57.367 4.149.702 5.242.333 1.085.763 1.66 1.097 2.107l.087.117c.082.111.08.17.079.192a.49.49 0 0 1-.115.254c-.204.27-.623.51-1.095.51H6.117c-.472 0-.891-.24-1.095-.51a.49.49 0 0 1-.114-.254c-.002-.023-.004-.081.078-.192l.087-.116Zm.273-6.92c-.267 4.403-.848 5.182-1.478 6.026l-.088.119C2.663 16.165 4.238 18 6.117 18H8.22v.076c0 2.167 1.79 3.924 4 3.924 2.209 0 4-1.757 4-3.924V18h1.663c1.879 0 3.454-1.835 2.338-3.347l-.09-.12c-.652-.875-1.253-1.68-1.506-6.533-.172-3.31-2.812-6-6.127-6H12C8.41 2 5.564 4.925 5.346 8.509Zm9.374 9.568c0 1.312-1.093 2.424-2.5 2.424-1.408 0-2.5-1.112-2.5-2.424v-.038c.073-.006.157-.01.253-.015A58.517 58.517 0 0 1 12.22 18c1.014 0 1.725 0 2.246.023l.254.015v.038Z" fill="#000B26" fill-opacity=".72"/>
</symbol><symbol id="bigA">
	<path opacity=".1" d="m733.743 199.765.001-.003c10.367-72.042-1.513-121.855-23.691-153.674C687.87 14.263 655.425.5 624.813.5c-32.695 0-64.677 10.061-96.921 25.122-27.799 12.984-55.824 29.7-84.684 46.914-4.61 2.75-9.241 5.512-13.897 8.274-67.625 40.124-140.316 80.171-226.059 80.171-28.534 0-58.218-10.157-75.761-31.815-17.515-21.626-23.029-54.847-2.975-101.22l.105-.244-.143-.224-2.436-3.821-.442-.692-.412.71C100.415 59.44 79.695 141.052 79.695 230.258c0 28.729 7.326 62.568 22.299 89.242 14.975 26.675 37.653 46.266 68.361 46.266 15.496 0 32.446-5.491 50.408-15.051 17.965-9.563 36.975-23.213 56.597-39.574 39.244-32.719 80.994-76.324 121.807-119.865 5.273-5.625 10.531-11.25 15.765-16.849 35.29-37.753 69.535-74.388 100.487-102.708 17.771-16.26 34.441-29.765 49.585-39.162 15.155-9.403 28.724-14.657 40.308-14.5h.006c7.248 0 12.862 1.58 16.684 5.883 3.837 4.319 5.965 11.488 5.966 22.906-.608 23.266-10.812 47.647-28.273 73.107s-42.151 51.959-71.666 79.451c-44.645 41.585-100.28 85.398-158.548 131.284-18.782 14.791-37.838 29.797-56.887 45.013-78.13 62.411-156.14 128.348-214.62 197.405C39.502 642.158.5 714.392.5 789.394c0 48.498 15.565 100.518 49.004 140.423C82.955 969.736 134.27 997.5 205.688 997.5c23.98 0 50.454-16.458 78.612-47.228 28.177-30.791 58.127-76.006 89.052-133.736C435.17 701.139 500.933 535.657 564.26 335.198h12.339L398.938 860.559l-.067.198.095.188c16.494 32.57 45.497 62.88 78.907 85.048 33.408 22.166 71.273 36.223 105.515 36.223 42.492 0 84.939-19.731 122.895-50.381 37.959-30.653 71.466-72.257 96.088-116.086 24.62-43.825 40.378-89.91 42.802-129.531 2.423-39.617-8.487-72.877-37.338-90.844l-.002-.002c-12.052-7.429-27.829-7.555-45.484-2.382-17.662 5.175-37.283 15.675-57.106 29.623-39.649 27.898-80.203 69.655-107.65 110.461l-.224.334.278.291 4.873 5.094.398.415.356-.45c11.566-14.636 20.037-22.521 28.004-26.45 7.939-3.914 15.434-3.928 25.148-2.659l.007.001.008.001c7.715.776 13.934 5.58 18.746 13.474 4.816 7.902 8.19 18.855 10.203 31.798 4.025 25.88 2.584 59.572-3.5 92.331-6.086 32.762-16.806 64.531-31.3 86.585-14.503 22.067-32.663 34.25-53.664 28.291h-.002c-17.94-5.001-28.879-24.421-31.161-59.89-2.28-35.428 4.103-86.633 20.547-154.756 11.163-44.811 31.82-116.145 54.294-193.754 8.181-28.252 16.603-57.336 24.896-86.274 31.065-108.407 60.318-214.795 68.243-267.691ZM185.476 697.712l-.5-.021.5.021c4.866-115.736 56.257-196.822 131.753-276.539 32.949-34.791 70.479-69.31 110.733-106.335 5.871-5.4 11.801-10.854 17.783-16.37 46.873-43.223 96.941-90.239 147.397-145.172l5.525 5.776c-2.26 7.939-4.537 15.95-6.832 24.023-37.261 131.107-79.138 278.453-130.591 395.467-27.329 62.151-57.346 115.71-90.783 153.724-33.437 38.014-70.244 60.429-111.164 60.429-26.06 0-45.09-9.496-57.318-26.066-12.244-16.592-17.719-40.345-16.503-68.937Z" stroke="#002DFF"/>
</symbol><symbol id="burger-menu">
    <path fill-rule="evenodd" clip-rule="evenodd" d="M.25 1A.75.75 0 0 1 1 .25h18a.75.75 0 0 1 0 1.5H1A.75.75 0 0 1 .25 1Zm0 12a.75.75 0 0 1 .75-.75h18a.75.75 0 0 1 0 1.5H1A.75.75 0 0 1 .25 13ZM1 6.25a.75.75 0 0 0 0 1.5h18a.75.75 0 0 0 0-1.5H1Z" fill="#000B26" fill-opacity=".72"/>
</symbol><symbol id="close">
    <path fill-rule="evenodd" clip-rule="evenodd" d="M18.707 2.707a1 1 0 0 0-1.414-1.414L10 8.586 2.707 1.293a1 1 0 0 0-1.414 1.414L8.586 10l-7.293 7.293a1 1 0 1 0 1.414 1.414L10 11.414l7.293 7.293a1 1 0 0 0 1.414-1.414L11.414 10l7.293-7.293Z" fill="#000B26" fill-opacity=".72"/>
</symbol><symbol id="darkArrow" viewBox="0 0 24 24">
<path fill-rule="evenodd" clip-rule="evenodd" d="M15.5303 18.5303C15.2374 18.8232 14.7626 18.8232 14.4697 18.5303L8.46967 12.5303C8.17678 12.2374 8.17678 11.7626 8.46967 11.4697L14.4697 5.46967C14.7626 5.17678 15.2374 5.17678 15.5303 5.46967C15.8232 5.76256 15.8232 6.23744 15.5303 6.53033L10.0607 12L15.5303 17.4697C15.8232 17.7626 15.8232 18.2374 15.5303 18.5303Z" fill="#000B26" fill-opacity="0.72"/>
</symbol><symbol id="hide" viewBox="0 0 24 24">
<path fill-rule="evenodd" clip-rule="evenodd" d="M20.0304 3.96967C20.3233 4.26256 20.3233 4.73744 20.0304 5.03033L18.3908 6.66991C18.3909 6.67 18.391 6.67008 18.3911 6.67016L17.3299 7.73131C17.3298 7.73123 17.3297 7.73115 17.3296 7.73106L7.85155 17.2091C7.85166 17.2092 7.85176 17.2093 7.85186 17.2094L6.77414 18.2871C6.77404 18.287 6.77394 18.2869 6.77384 18.2869L5.03037 20.0303C4.73748 20.3232 4.2626 20.3232 3.96971 20.0303C3.67682 19.7374 3.67682 19.2626 3.96971 18.9697L5.60929 17.3301C3.63473 15.48 2.51809 13.2015 2.14364 12.3461C2.04668 12.1246 2.04668 11.8754 2.14364 11.6539C2.81565 10.1188 5.87815 4 12 4C14.0897 4 15.8229 4.71293 17.2262 5.71314L18.9697 3.96967C19.2626 3.67678 19.7375 3.67678 20.0304 3.96967ZM8.55607 19.2957C9.57447 19.7327 10.7204 20 12 20C18.1219 20 21.1844 13.8812 21.8564 12.3461C21.9534 12.1246 21.9534 11.8754 21.8564 11.6539C21.5767 11.0148 20.8826 9.5814 19.7261 8.12574L18.6577 9.19408C19.5089 10.2937 20.073 11.3702 20.3667 12C19.991 12.8055 19.1732 14.3416 17.8779 15.7225C16.4381 17.2575 14.5108 18.5 12 18.5C11.1779 18.5 10.4184 18.3668 9.71807 18.1337L8.55607 19.2957ZM12 5.5C13.6161 5.5 14.9904 6.01472 16.1485 6.79085L13.524 9.41538C13.2907 9.27755 13.0372 9.1704 12.769 9.09947C12.5235 9.03457 12.2658 9 12 9C10.3431 9 8.99998 10.3431 8.99998 12C8.99998 12.2658 9.03456 12.5236 9.09945 12.769C9.17038 13.0372 9.27754 13.2908 9.41537 13.524L6.67044 16.2689C6.48033 16.0923 6.29763 15.9096 6.12217 15.7225C4.82689 14.3416 4.00909 12.8055 3.63334 12C4.00909 11.1945 4.8269 9.65836 6.12217 8.27749C7.562 6.7425 9.48923 5.5 12 5.5Z" fill="#000B26" fill-opacity="0.72"/>
</symbol><symbol id="show" viewBox="0 0 24 24">
<path fill-rule="evenodd" clip-rule="evenodd" d="M17.8779 8.27749C19.1732 9.65836 19.991 11.1945 20.3667 12C19.991 12.8055 19.1732 14.3416 17.8779 15.7225C16.4381 17.2575 14.5108 18.5 12 18.5C9.48923 18.5 7.562 17.2575 6.12217 15.7225C4.82689 14.3416 4.00909 12.8055 3.63334 12C4.00909 11.1945 4.8269 9.65836 6.12217 8.27749C7.562 6.7425 9.48923 5.5 12 5.5C14.5108 5.5 16.4381 6.7425 17.8779 8.27749ZM21.8564 11.6539C21.9534 11.8754 21.9534 12.1246 21.8564 12.3461C21.1844 13.8812 18.1219 20 12 20C5.87815 20 2.81565 13.8812 2.14364 12.3461C2.04668 12.1246 2.04668 11.8754 2.14364 11.6539C2.81565 10.1188 5.87815 4 12 4C18.1219 4 21.1844 10.1188 21.8564 11.6539ZM12 15C13.6568 15 15 13.6569 15 12C15 10.3431 13.6568 9 12 9C10.3431 9 8.99998 10.3431 8.99998 12C8.99998 13.6569 10.3431 15 12 15Z" fill="#000B26" fill-opacity="0.72"/>
</symbol><symbol id="smallA" viewBox="0 0 124 146">
	<path opacity=".2" d="M107.341 29.8v-.002c1.509-10.484-.209-17.807-3.497-22.524C100.553 2.551 95.728.5 91.172.5c-4.813 0-9.501 1.482-14.191 3.672C72.941 6.06 68.87 8.49 64.7 10.977c-.666.397-1.335.796-2.006 1.194-9.78 5.804-20.195 11.531-32.459 11.531-4.04 0-8.188-1.44-10.618-4.441-2.403-2.967-3.226-7.59-.37-14.196l.105-.243-.143-.224-.352-.552-.441-.693-.413.71c-3.054 5.26-6.055 17.143-6.055 30.083 0 4.215 1.072 9.181 3.278 13.111 2.206 3.932 5.602 6.908 10.254 6.908 2.337 0 4.859-.827 7.488-2.226 2.632-1.402 5.405-3.395 8.254-5.77 5.695-4.75 11.747-11.074 17.645-17.367.763-.814 1.523-1.628 2.28-2.437 5.103-5.46 10.04-10.743 14.501-14.825 2.56-2.343 4.948-4.276 7.104-5.614 2.168-1.345 4.044-2.053 5.595-2.032h.007c.995 0 1.657.217 2.092.707.45.506.754 1.41.754 3.022-.086 3.246-1.513 6.689-4.012 10.333-2.498 3.644-6.041 7.45-10.298 11.416-6.439 5.999-14.46 12.318-22.88 18.949-2.717 2.14-5.476 4.313-8.236 6.519-11.295 9.024-22.6 18.58-31.083 28.598C6.213 93.45.5 103.992.5 114.985c0 7.096 2.276 14.719 7.183 20.577 4.92 5.87 12.458 9.938 22.905 9.938 3.655 0 7.59-2.498 11.679-6.967 4.107-4.489 8.455-11.061 12.933-19.422 8.923-16.659 18.404-40.505 27.532-69.365h.874l-25.49 75.391-.067.198.095.188c2.424 4.787 6.673 9.222 11.551 12.459 4.876 3.235 10.43 5.308 15.489 5.308 6.274 0 12.502-2.911 18.033-7.379 5.535-4.47 10.412-10.53 13.994-16.907 3.579-6.373 5.885-13.098 6.241-18.91.355-5.809-1.24-10.81-5.598-13.523l-.002-.002c-1.889-1.165-4.312-1.155-6.919-.39-2.615.766-5.494 2.311-8.381 4.343-5.775 4.064-11.674 10.14-15.67 16.081l-.224.334.278.291.704.737.398.415.356-.451c1.664-2.106 2.84-3.182 3.902-3.706 1.033-.509 2.015-.523 3.39-.344l.008.001.007.001c.94.095 1.737.677 2.387 1.745.656 1.076 1.131 2.597 1.418 4.441.572 3.681.37 8.501-.504 13.205-.874 4.707-2.41 9.239-4.461 12.361-2.061 3.137-4.522 4.698-7.283 3.914h-.002c-2.306-.643-3.865-3.175-4.193-8.275-.325-5.057.585-12.41 2.959-22.245 1.611-6.471 4.593-16.77 7.84-27.986 1.184-4.086 2.402-8.295 3.603-12.484 4.487-15.661 8.725-31.075 9.876-38.757ZM65.578 44.322c6.681-6.163 13.82-12.866 21.022-20.678l.314.328a6943 6943 0 0 0-.918 3.23c-5.388 18.963-11.434 40.24-18.86 57.129-3.943 8.97-8.26 16.667-13.052 22.115-4.79 5.447-10.004 8.591-15.747 8.591-3.652 0-6.266-1.324-7.941-3.595-1.692-2.292-2.476-5.616-2.303-9.694v-.001c.698-16.59 8.053-28.22 18.928-39.705 4.752-5.019 10.165-9.998 15.985-15.352l2.572-2.368Z"/>
</symbol><symbol id="smallG" viewBox="0 0 140 146">
	<path opacity=".2" d="m90.58 4.99-.661.221.422.556c3.524 4.643 2.85 9.988.169 14.228-2.697 4.264-7.353 7.287-11.594 7.287-4.569 0-8.408-1.635-12.034-4.124-2.985-2.049-5.798-4.655-8.748-7.39a428.133 428.133 0 0 0-1.97-1.818C48.807 7.215 40.35.403 26.776.501c-10.84 0-17.443 4.852-21.309 11.18C1.622 17.975.5 25.696.5 31.47v55.504c0 35.058 27.211 58.526 63.104 58.526h61.553V89.996H139.5v-.5c0-5.7-1.215-10.339-3.399-14.085-2.185-3.747-5.321-6.572-9.118-8.67-7.576-4.187-17.809-5.496-28.491-5.496H37.713V98.34H40.264V79.805c.195-3.899.44-6.716 1.52-8.82 1.052-2.051 2.94-3.491 6.638-4.488 3.719-1.003 9.192-1.536 17.307-1.815 8.106-.278 18.805-.303 32.956-.303 2.445 0 4.291.278 5.706.977 1.391.687 2.412 1.804 3.161 3.592.757 1.807 1.23 4.286 1.51 7.663.28 3.371.365 7.599.365 12.885v.5h12.548c-2.176 22.308-8.472 35.235-18.261 42.621-9.889 7.463-23.454 9.36-40.304 9.36-10.065 0-18.746-5.702-24.932-14.56-6.186-8.859-9.843-20.837-9.843-33.263V33.622c.575-8.287 4.086-13.242 7.987-16.136 3.925-2.912 8.275-3.759 10.507-3.759 4.728 0 8.133 2.48 10.98 6.318 2.584 3.485 4.662 8.026 6.815 12.733.231.505.463 1.013.697 1.52 2.395 5.21 4.954 10.49 8.443 14.465 3.508 3.995 7.974 6.69 14.155 6.69 4.463 0 7.165-3.04 8.727-7.013 1.56-3.967 2.046-8.99 2.046-13.283 0-13.06-3.305-25-6.667-30.347l-.21-.332-.372.124-1.162.388Z"/>
</symbol><symbol id="smallN" viewBox="0 0 214 146">
	<path opacity=".2" d="m23.176 1.961-.368-.122-.21.326c-1.66 2.578-3.294 6.809-4.513 11.946-1.22 5.146-2.034 11.237-2.034 17.555 0 4.15.495 9.021 2.034 12.873 1.54 3.856 4.19 6.815 8.526 6.815 3.694 0 6.957-2.558 10.145-6.165 2.124-2.403 4.278-5.35 6.548-8.453 1.145-1.566 2.318-3.171 3.533-4.767 7.296-9.593 16.145-18.991 29.534-18.991.61 0 1.651.086 3.03.2l1.233.1c-7.451 15.449-18.571 36.576-31.208 53.778-6.409 8.724-13.193 16.418-20.071 21.848-6.884 5.435-13.806 8.56-20.506 8.254l-.45-.02-.067.445-6.826 45.37-.087.574H2c8.373 0 15.907-4.584 22.93-12.255 7.025-7.672 13.595-18.491 20.045-31.1 6.394-12.5 12.688-26.791 19.196-41.573l.178-.404C70.877 43.37 77.626 28.06 84.925 13.552c6.335.727 14.961 2.104 22.238 4.423 3.706 1.182 7.035 2.599 9.527 4.281 2.5 1.688 4.087 3.592 4.458 5.729.699 4.193 0 9.82-2.646 14.927-3.132 5.99-8.869 11.201-15.783 16.192-4.416 3.187-9.272 6.257-14.204 9.374-2.797 1.769-5.62 3.553-8.4 5.383-15.268 10.049-29.214 21.436-29.214 38.681 0 11.595 6.274 19.848 14.004 25.181 7.715 5.323 16.93 7.777 22.963 7.777 19.668 0 33.273-15.799 39.386-24.234 4.22-5.708 8.282-14.72 12.406-25.193 2.243-5.694 4.517-11.857 6.85-18.177 1.955-5.296 3.95-10.702 6.002-16.036 4.511-11.73 9.317-23.173 14.637-32.562 5.327-9.403 11.129-16.672 17.601-20.144 8.549-4.509 15.457-4.476 24.24-4.433.864.004 1.747.008 2.651.008h.401l.087-.391.359-1.614.136-.61h-27.031c-7.765.001-18.336 1.172-27.904 4.671-9.561 3.498-18.204 9.354-21.962 18.778-4.508 11.296-7.603 24.278-10.251 37.372-.989 4.89-1.915 9.791-2.829 14.628-1.537 8.136-3.039 16.09-4.749 23.502-2.727 11.816-5.963 22.163-10.649 29.548-4.672 7.361-10.751 11.735-19.201 11.735-4.216 0-7.26-2.008-9.268-4.896-2.019-2.904-2.987-6.7-2.987-10.205 0-5.174 2.092-11.456 5.446-18.33 3.348-6.863 7.925-14.26 12.84-21.652 3.21-4.83 6.556-9.645 9.793-14.303 1.719-2.474 3.407-4.903 5.028-7.267 4.664-6.801 8.768-13.057 11.39-18.2v-.002c7.159-14.112 6.109-25.833.553-34.062C115.301 5.224 105.343.59 94.879.5h-.002C80.442.411 70.097 6.354 61.12 12.262c-1.02.67-2.02 1.34-3.005 2-3.367 2.252-6.563 4.39-9.779 6.093-4.146 2.196-8.273 3.638-12.742 3.638-4.043 0-7.409-2.946-9.477-7.141-2.063-4.185-2.76-9.484-1.538-13.925l.126-.457-.45-.15-1.078-.359Z"/>
</symbol><symbol id="smallO" viewBox="0 0 128 144">
	<path opacity=".2" d="M120.479 64.022v-1.358l-.881 1.034a213.702 213.702 0 0 1-4.588 5.238c8.839-10.596 14.49-23.19 14.49-36.874C129.5 9.886 114.603.5 103.925.5 86.979.5 68.694 11.39 54.669 28.445c-14.036 17.07-23.87 40.386-23.87 65.383 0 .625.319 1.19.774 1.68.415.444.98.864 1.638 1.258C10.316 89.609 1.447 64.492 13.21 47.428v-.001c3.99-5.834 8.978-8.63 13.435-8.715 4.431-.085 8.464 2.504 10.613 7.725l.127.31h1.532l-.273-.685c-2.849-7.141-8.131-15.448-14.118-19.9-2.998-2.228-6.23-3.532-9.453-3.162-3.24.373-6.346 2.422-9.113 6.631-6.382 9.507-7.044 24.224-2.64 37.822 4.38 13.52 13.808 26.063 27.817 31.402 1.322 13.285 4.502 24.889 10.106 33.205 5.665 8.406 13.802 13.44 24.916 13.44 10.996 0 24.273-8.122 34.921-21.009 10.667-12.911 18.783-30.7 19.399-50.218.114-3.342.058-6.5.023-8.553-.013-.71-.023-1.29-.023-1.698Zm-68.661 37.459c15.808-1.007 33.238-7.629 47.571-18.062l-.115.796c-.395 2.745-1.2 8.325-2.871 16.33-.03.131-.06.272-.095.423-.847 3.801-3.098 13.901-7.663 23.208-4.765 9.715-11.942 18.349-22.486 18.349-3.084 0-5.531-1.302-7.484-3.587-1.967-2.302-3.433-5.604-4.494-9.576-2.089-7.819-2.567-18.066-2.363-27.881Zm8.678-21.902.689.23-.03-.725c-.38-9.092 1.483-23.02 6.38-34.23 2.447-5.604 5.637-10.492 9.648-13.765C81.18 27.828 86 26.16 91.775 26.991h.003c3.84.526 6.661 1.983 8.659 4.353 2.007 2.38 3.227 5.736 3.756 10.137 1.055 8.788-.668 21.536-4.085 38.42-13.98 10.899-31.636 17.957-48.282 18.79-.004-.532-.012-1.108-.021-1.731-.09-6.09-.244-16.593 3.374-32.647 3.965-17.191 10.364-32.383 18.415-43.265 8.057-10.888 17.711-17.393 28.19-17.393 6.229 0 12.636 2.247 17.484 6.95 4.841 4.698 8.162 11.88 8.162 21.816 0 8.84-2.669 17.223-7.148 25.005-.333-7.991-2.465-16.326-6.764-22.965-4.622-7.138-11.751-12.312-21.792-12.952-12.413-.83-20.654 8.6-25.721 20.525-5.078 11.95-7.074 26.61-6.92 36.72l.005.353.336.113 1.07.359Z"/>
</symbol></svg>