<?xml version="1.0" encoding="UTF-8"?><!DOCTYPE svg PUBLIC "-//W3C//DTD SVG 1.1//EN" "http://www.w3.org/Graphics/SVG/1.1/DTD/svg11.dtd"><svg xmlns="http://www.w3.org/2000/svg" xmlns:xlink="http://www.w3.org/1999/xlink"><defs/><symbol id="arrow" viewBox="0 0 24 24">
<path fill-rule="evenodd" clip-rule="evenodd" d="M8.46967 5.46967C8.76256 5.17678 9.23744 5.17678 9.53033 5.46967L15.5303 11.4697C15.8232 11.7626 15.8232 12.2374 15.5303 12.5303L9.53033 18.5303C9.23744 18.8232 8.76256 18.8232 8.46967 18.5303C8.17678 18.2374 8.17678 17.7626 8.46967 17.4697L13.9393 12L8.46967 6.53033C8.17678 6.23744 8.17678 5.76256 8.46967 5.46967Z" fill="#002DFF"/>
</symbol><symbol id="bell">
	<path fill-rule="evenodd" clip-rule="evenodd" d="M5.073 15.428c.318-.426.734-.982 1.061-1.995.333-1.03.567-2.491.71-4.833C7.016 5.733 9.275 3.5 12 3.5h.498c2.458 0 4.496 2.005 4.63 4.578.133 2.57.367 4.149.702 5.242.333 1.085.763 1.66 1.097 2.107l.087.117c.082.111.08.17.079.192a.49.49 0 0 1-.115.254c-.204.27-.623.51-1.095.51H6.117c-.472 0-.891-.24-1.095-.51a.49.49 0 0 1-.114-.254c-.002-.023-.004-.081.078-.192l.087-.116Zm.273-6.92c-.267 4.403-.848 5.182-1.478 6.026l-.088.119C2.663 16.165 4.238 18 6.117 18H8.22v.076c0 2.167 1.79 3.924 4 3.924 2.209 0 4-1.757 4-3.924V18h1.663c1.879 0 3.454-1.835 2.338-3.347l-.09-.12c-.652-.875-1.253-1.68-1.506-6.533-.172-3.31-2.812-6-6.127-6H12C8.41 2 5.564 4.925 5.346 8.509Zm9.374 9.568c0 1.312-1.093 2.424-2.5 2.424-1.408 0-2.5-1.112-2.5-2.424v-.038c.073-.006.157-.01.253-.015A58.517 58.517 0 0 1 12.22 18c1.014 0 1.725 0 2.246.023l.254.015v.038Z" fill="#000B26" fill-opacity=".72"/>
</symbol><symbol id="bigA" viewBox="0 0 846 998">
<path opacity="0.1" d="M733.743 199.765L733.744 199.762C744.111 127.72 732.231 77.9069 710.053 46.0881C687.87 14.2633 655.425 0.5 624.813 0.5C592.118 0.5 560.136 10.5614 527.892 25.6221C500.093 38.6064 472.068 55.3223 443.208 72.5362C438.598 75.286 433.967 78.0484 429.311 80.8104C361.686 120.934 288.995 160.981 203.252 160.981C174.718 160.981 145.034 150.824 127.491 129.166C109.976 107.54 104.462 74.3185 124.516 27.9453L124.621 27.7017L124.478 27.478L122.042 23.657L121.6 22.9646L121.188 23.6747C100.415 59.4407 79.695 141.052 79.695 230.258C79.695 258.987 87.021 292.826 101.994 319.5C116.969 346.175 139.647 365.766 170.355 365.766C185.851 365.766 202.801 360.275 220.763 350.715C238.728 341.152 257.738 327.502 277.36 311.141C316.604 278.422 358.354 234.817 399.167 191.276C404.44 185.651 409.698 180.026 414.932 174.427C450.222 136.674 484.467 100.039 515.419 71.7186C533.19 55.4586 549.86 41.9544 565.004 32.5573C580.159 23.1536 593.728 17.9003 605.312 18.0576H605.318C612.566 18.0576 618.18 19.6367 622.002 23.9395C625.839 28.2587 627.967 35.4278 627.968 46.8457C627.36 70.1118 617.156 94.4932 599.695 119.953C582.234 145.413 557.544 171.912 528.029 199.404C483.384 240.989 427.749 284.802 369.481 330.688C350.699 345.479 331.643 360.485 312.594 375.701C234.464 438.112 156.454 504.049 97.9749 573.106C39.5007 642.158 0.5 714.392 0.5 789.394C0.5 837.892 16.0647 889.912 49.5044 929.817C82.9553 969.736 134.269 997.5 205.688 997.5C229.668 997.5 256.142 981.042 284.3 950.272C312.477 919.481 342.427 874.266 373.352 816.536C435.17 701.139 500.933 535.657 564.26 335.198H576.599L398.938 860.559L398.871 860.757L398.966 860.945C415.46 893.515 444.463 923.825 477.873 945.993C511.281 968.159 549.146 982.216 583.388 982.216C625.88 982.216 668.327 962.485 706.283 931.835C744.242 901.182 777.749 859.578 802.371 815.749C826.991 771.924 842.749 725.839 845.173 686.218C847.596 646.601 836.686 613.341 807.835 595.374L807.833 595.372C795.781 587.943 780.004 587.817 762.349 592.99C744.687 598.165 725.066 608.665 705.243 622.613C665.594 650.511 625.04 692.268 597.593 733.074L597.369 733.408L597.647 733.699L602.52 738.793L602.918 739.208L603.274 738.758C614.84 724.122 623.311 716.237 631.278 712.308C639.217 708.394 646.712 708.38 656.426 709.649L656.433 709.65L656.441 709.651C664.156 710.427 670.375 715.231 675.187 723.125C680.003 731.027 683.377 741.98 685.39 754.923C689.415 780.803 687.974 814.495 681.89 847.254C675.804 880.016 665.084 911.785 650.59 933.839C636.087 955.906 617.927 968.089 596.926 962.13L596.924 962.13C578.984 957.129 568.045 937.709 565.763 902.24C563.483 866.812 569.866 815.607 586.31 747.484C597.473 702.673 618.13 631.339 640.604 553.73C648.785 525.478 657.207 496.394 665.5 467.456C696.565 359.049 725.818 252.661 733.743 199.765ZM185.476 697.712L184.976 697.691L185.476 697.712C190.342 581.976 241.733 500.89 317.229 421.173C350.178 386.382 387.708 351.863 427.962 314.838C433.833 309.438 439.763 303.984 445.745 298.468C492.618 255.245 542.686 208.229 593.142 153.296L598.667 159.072C596.407 167.011 594.13 175.022 591.835 183.095C554.574 314.202 512.697 461.548 461.244 578.562C433.915 640.713 403.898 694.272 370.461 732.286C337.024 770.3 300.217 792.715 259.297 792.715C233.237 792.715 214.207 783.219 201.979 766.649C189.735 750.057 184.26 726.304 185.476 697.712Z" stroke="#002DFF"/>
</symbol><symbol id="hide" viewBox="0 0 24 24">
<path fill-rule="evenodd" clip-rule="evenodd" d="M20.0304 3.96967C20.3233 4.26256 20.3233 4.73744 20.0304 5.03033L18.3908 6.66991C18.3909 6.67 18.391 6.67008 18.3911 6.67016L17.3299 7.73131C17.3298 7.73123 17.3297 7.73115 17.3296 7.73106L7.85155 17.2091C7.85166 17.2092 7.85176 17.2093 7.85186 17.2094L6.77414 18.2871C6.77404 18.287 6.77394 18.2869 6.77384 18.2869L5.03037 20.0303C4.73748 20.3232 4.2626 20.3232 3.96971 20.0303C3.67682 19.7374 3.67682 19.2626 3.96971 18.9697L5.60929 17.3301C3.63473 15.48 2.51809 13.2015 2.14364 12.3461C2.04668 12.1246 2.04668 11.8754 2.14364 11.6539C2.81565 10.1188 5.87815 4 12 4C14.0897 4 15.8229 4.71293 17.2262 5.71314L18.9697 3.96967C19.2626 3.67678 19.7375 3.67678 20.0304 3.96967ZM8.55607 19.2957C9.57447 19.7327 10.7204 20 12 20C18.1219 20 21.1844 13.8812 21.8564 12.3461C21.9534 12.1246 21.9534 11.8754 21.8564 11.6539C21.5767 11.0148 20.8826 9.5814 19.7261 8.12574L18.6577 9.19408C19.5089 10.2937 20.073 11.3702 20.3667 12C19.991 12.8055 19.1732 14.3416 17.8779 15.7225C16.4381 17.2575 14.5108 18.5 12 18.5C11.1779 18.5 10.4184 18.3668 9.71807 18.1337L8.55607 19.2957ZM12 5.5C13.6161 5.5 14.9904 6.01472 16.1485 6.79085L13.524 9.41538C13.2907 9.27755 13.0372 9.1704 12.769 9.09947C12.5235 9.03457 12.2658 9 12 9C10.3431 9 8.99998 10.3431 8.99998 12C8.99998 12.2658 9.03456 12.5236 9.09945 12.769C9.17038 13.0372 9.27754 13.2908 9.41537 13.524L6.67044 16.2689C6.48033 16.0923 6.29763 15.9096 6.12217 15.7225C4.82689 14.3416 4.00909 12.8055 3.63334 12C4.00909 11.1945 4.8269 9.65836 6.12217 8.27749C7.562 6.7425 9.48923 5.5 12 5.5Z" fill="#000B26" fill-opacity="0.72"/>
</symbol><symbol id="show" viewBox="0 0 24 24">
<path fill-rule="evenodd" clip-rule="evenodd" d="M17.8779 8.27749C19.1732 9.65836 19.991 11.1945 20.3667 12C19.991 12.8055 19.1732 14.3416 17.8779 15.7225C16.4381 17.2575 14.5108 18.5 12 18.5C9.48923 18.5 7.562 17.2575 6.12217 15.7225C4.82689 14.3416 4.00909 12.8055 3.63334 12C4.00909 11.1945 4.8269 9.65836 6.12217 8.27749C7.562 6.7425 9.48923 5.5 12 5.5C14.5108 5.5 16.4381 6.7425 17.8779 8.27749ZM21.8564 11.6539C21.9534 11.8754 21.9534 12.1246 21.8564 12.3461C21.1844 13.8812 18.1219 20 12 20C5.87815 20 2.81565 13.8812 2.14364 12.3461C2.04668 12.1246 2.04668 11.8754 2.14364 11.6539C2.81565 10.1188 5.87815 4 12 4C18.1219 4 21.1844 10.1188 21.8564 11.6539ZM12 15C13.6568 15 15 13.6569 15 12C15 10.3431 13.6568 9 12 9C10.3431 9 8.99998 10.3431 8.99998 12C8.99998 13.6569 10.3431 15 12 15Z" fill="#000B26" fill-opacity="0.72"/>
</symbol><symbol id="smallA">
	<path opacity=".2" d="M107.341 29.8v-.002c1.509-10.484-.209-17.807-3.497-22.524C100.553 2.551 95.728.5 91.172.5c-4.813 0-9.501 1.482-14.191 3.672C72.941 6.06 68.87 8.49 64.7 10.977c-.666.397-1.335.796-2.006 1.194-9.78 5.804-20.195 11.531-32.459 11.531-4.04 0-8.188-1.44-10.618-4.441-2.403-2.967-3.226-7.59-.37-14.196l.105-.243-.143-.224-.352-.552-.441-.693-.413.71c-3.054 5.26-6.055 17.143-6.055 30.083 0 4.215 1.072 9.181 3.278 13.111 2.206 3.932 5.602 6.908 10.254 6.908 2.337 0 4.859-.827 7.488-2.226 2.632-1.402 5.405-3.395 8.254-5.77 5.695-4.75 11.747-11.074 17.645-17.367.763-.814 1.523-1.628 2.28-2.437 5.103-5.46 10.04-10.743 14.501-14.825 2.56-2.343 4.948-4.276 7.104-5.614 2.168-1.345 4.044-2.053 5.595-2.032h.007c.995 0 1.657.217 2.092.707.45.506.754 1.41.754 3.022-.086 3.246-1.513 6.689-4.012 10.333-2.498 3.644-6.041 7.45-10.298 11.416-6.439 5.999-14.46 12.318-22.88 18.949-2.717 2.14-5.476 4.313-8.236 6.519-11.295 9.024-22.6 18.58-31.083 28.598C6.213 93.45.5 103.992.5 114.985c0 7.096 2.276 14.719 7.183 20.577 4.92 5.87 12.458 9.938 22.905 9.938 3.655 0 7.59-2.498 11.679-6.967 4.107-4.489 8.455-11.061 12.933-19.422 8.923-16.659 18.404-40.505 27.532-69.365h.874l-25.49 75.391-.067.198.095.188c2.424 4.787 6.673 9.222 11.551 12.459 4.876 3.235 10.43 5.308 15.489 5.308 6.274 0 12.502-2.911 18.033-7.379 5.535-4.47 10.412-10.53 13.994-16.907 3.579-6.373 5.885-13.098 6.241-18.91.355-5.809-1.24-10.81-5.598-13.523l-.002-.002c-1.889-1.165-4.312-1.155-6.919-.39-2.615.766-5.494 2.311-8.381 4.343-5.775 4.064-11.674 10.14-15.67 16.081l-.224.334.278.291.704.737.398.415.356-.451c1.664-2.106 2.84-3.182 3.902-3.706 1.033-.509 2.015-.523 3.39-.344l.008.001.007.001c.94.095 1.737.677 2.387 1.745.656 1.076 1.131 2.597 1.418 4.441.572 3.681.37 8.501-.504 13.205-.874 4.707-2.41 9.239-4.461 12.361-2.061 3.137-4.522 4.698-7.283 3.914h-.002c-2.306-.643-3.865-3.175-4.193-8.275-.325-5.057.585-12.41 2.959-22.245 1.611-6.471 4.593-16.77 7.84-27.986 1.184-4.086 2.402-8.295 3.603-12.484 4.487-15.661 8.725-31.075 9.876-38.757ZM65.578 44.322c6.681-6.163 13.82-12.866 21.022-20.678l.314.328a6943 6943 0 0 0-.918 3.23c-5.388 18.963-11.434 40.24-18.86 57.129-3.943 8.97-8.26 16.667-13.052 22.115-4.79 5.447-10.004 8.591-15.747 8.591-3.652 0-6.266-1.324-7.941-3.595-1.692-2.292-2.476-5.616-2.303-9.694v-.001c.698-16.59 8.053-28.22 18.928-39.705 4.752-5.019 10.165-9.998 15.985-15.352l2.572-2.368Z" stroke="#002DFF"/>
</symbol><symbol id="smallG" viewBox="0 0 140 146">
<path opacity="0.2" d="M90.5805 4.99034L89.9187 5.21121L90.3405 5.76692C93.8649 10.4102 93.1917 15.7554 90.51 19.9951C87.813 24.259 83.1575 27.2825 78.9157 27.2825C74.3471 27.2825 70.5076 25.6473 66.882 23.1584C63.8967 21.1091 61.0845 18.5026 58.1344 15.7684C57.4856 15.167 56.83 14.5594 56.1645 13.9502C48.8068 7.21524 40.3499 0.403171 26.7763 0.501042C15.9354 0.501583 9.33331 5.35342 5.4673 11.681C1.62153 17.9754 0.5 25.6958 0.5 31.4698V86.9735C0.5 122.032 27.7113 145.5 63.6039 145.5H124.657H125.157V145V89.9964H139H139.5V89.4964C139.5 83.7959 138.285 79.1572 136.101 75.4111C133.916 71.6644 130.78 68.8394 126.983 66.7408C119.407 62.5538 109.174 61.2445 98.4916 61.2445H38.2135H37.7135V61.7445V97.8413V98.3413H38.2135H38.2225H38.2315H38.2405H38.2494H38.2582H38.267H38.2757H38.2843H38.2929H38.3015H38.31H38.3184H38.3268H38.3351H38.3434H38.3516H38.3598H38.3679H38.3759H38.3839H38.3919H38.3998H38.4076H38.4154H38.4231H38.4308H38.4384H38.446H38.4535H38.461H38.4684H38.4758H38.4831H38.4904H38.4976H38.5047H38.5118H38.5189H38.5259H38.5329H38.5398H38.5467H38.5535H38.5602H38.567H38.5736H38.5802H38.5868H38.5933H38.5998H38.6062H38.6126H38.6189H38.6252H38.6315H38.6377H38.6438H38.6499H38.656H38.662H38.6679H38.6738H38.6797H38.6855H38.6913H38.6971H38.7027H38.7084H38.714H38.7196H38.7251H38.7305H38.736H38.7414H38.7467H38.752H38.7573H38.7625H38.7676H38.7728H38.7779H38.7829H38.7879H38.7929H38.7978H38.8027H38.8075H38.8123H38.8171H38.8218H38.8265H38.8311H38.8357H38.8403H38.8448H38.8493H38.8538H38.8582H38.8625H38.8669H38.8712H38.8754H38.8797H38.8838H38.888H38.8921H38.8962H38.9002H38.9042H38.9082H38.9121H38.916H38.9198H38.9237H38.9275H38.9312H38.9349H38.9386H38.9423H38.9459H38.9495H38.953H38.9565H38.96H38.9635H38.9669H38.9703H38.9736H38.9769H38.9802H38.9835H38.9867H38.9899H38.9931H38.9962H38.9993H39.0024H39.0054H39.0084H39.0114H39.0143H39.0173H39.0202H39.023H39.0258H39.0287H39.0314H39.0342H39.0369H39.0396H39.0422H39.0449H39.0475H39.0501H39.0526H39.0551H39.0577H39.0601H39.0626H39.065H39.0674H39.0698H39.0721H39.0744H39.0767H39.079H39.0812H39.0835H39.0857H39.0878H39.09H39.0921H39.0942H39.0963H39.0983H39.1004H39.1024H39.1044H39.1063H39.1083H39.1102H39.1121H39.114H39.1158H39.1177H39.1195H39.1213H39.1231H39.1248H39.1266H39.1283H39.13H39.1316H39.1333H39.1349H39.1366H39.1382H39.1397H39.1413H39.1428H39.1444H39.1459H39.1474H39.1489H39.1503H39.1518H39.1532H39.1546H39.156H39.1574H39.1587H39.1601H39.1614H39.1627H39.164H39.1653H39.1666H39.1678H39.1691H39.1703H39.1715H39.1727H39.1739H39.1751H39.1762H39.1774H39.1785H39.1796H39.1807H39.1818H39.1829H39.184H39.1851H39.1861H39.1871H39.1882H39.1892H39.1902H39.1912H39.1922H39.1932H39.1941H39.1951H39.1961H39.197H39.1979H39.1988H39.1998H39.2007H39.2016H39.2025H39.2033H39.2042H39.2051H39.206H39.2068H39.2077H39.2085H39.2093H39.2102H39.211H39.2118H39.2126H39.2134H39.2142H39.215H39.2158H39.2166H39.2174H39.2182H39.2189H39.2197H39.2205H39.2213H39.222H39.2228H39.2235H39.2243H39.225H39.2258H39.2265H39.2273H39.228H39.2288H39.2295H39.2303H39.231H39.2317H39.2325H39.2332H39.234H39.2347H39.2355H39.2362H39.2369H39.2377H39.2384H39.2392H39.2399H39.2407H39.2414H39.2422H39.2429H39.2437H39.2445H39.2452H39.246H39.2468H39.2476H39.2483H39.2491H39.2499H39.2507H39.2515H39.2523H39.2531H39.2539H39.2547H39.2556H39.2564H39.2572H39.2581H39.2589H39.2598H39.2607H39.2615H39.2624H39.2633H39.2642H39.2651H39.266H39.2669H39.2678H39.2688H39.2697H39.2707H39.2716H39.2726H39.2736H39.2746H39.2756H39.2766H39.2776H39.2786H39.2797H39.2807H39.2818H39.2829H39.284H39.2851H39.2862H39.2873H39.2884H39.2896H39.2907H39.2919H39.2931H39.2943H39.2955H39.2968H39.298H39.2993H39.3005H39.3018H39.3031H39.3045H39.3058H39.3071H39.3085H39.3099H39.3113H39.3127H39.3141H39.3156H39.317H39.3185H39.32H39.3215H39.323H39.3246H39.3262H39.3277H39.3294H39.331H39.3326H39.3343H39.336H39.3377H39.3394H39.3411H39.3429H39.3447H39.3465H39.3483H39.3501H39.352H39.3539H39.3558H39.3577H39.3596H39.3616H39.3636H39.3656H39.3677H39.3697H39.3718H39.3739H39.376H39.3782H39.3804H39.3826H39.3848H39.3871H39.3893H39.3916H39.394H39.3963H39.3987H39.4011H39.4035H39.406H39.4084H39.411H39.4135H39.416H39.4186H39.4212H39.4239H39.4266H39.4293H39.432H39.4347H39.4375H39.4403H39.4432H39.446H39.4489H39.4519H39.4548H39.4578H39.4608H39.4639H39.4669H39.47H39.4732H39.4763H39.4795H39.4828H39.486H39.4893H39.4927H39.496H39.4994H39.5028H39.5063H39.5098H39.5133H39.5169H39.5205H39.5241H39.5277H39.5314H39.5352H39.5389H39.5427H39.5465H39.5504H39.5543H39.5582H39.5622H39.5662H39.5703H39.5744H39.5785H39.5826H39.5868H39.591H39.5953H39.5996H39.604H39.6083H39.6128H39.6172H39.6217H39.6262H39.6308H39.6354H39.6401H39.6448H39.6495H39.6543H39.6591H39.6639H39.6688H39.6738H39.6787H39.6837H39.6888H39.6939H39.699H39.7042H39.7094H39.7147H39.72H39.7254H39.7308H39.7362H39.7417H39.7472H39.7528H39.7584H39.764H40.264V97.8413V79.8054C40.459 75.9061 40.7042 73.0892 41.7837 70.9848C42.8359 68.9338 44.7235 67.4939 48.4223 66.4968C52.141 65.4943 57.6137 64.9612 65.7289 64.6822C73.8348 64.4036 84.534 64.3793 98.6854 64.3793C101.13 64.3793 102.976 64.6574 104.391 65.3556C105.782 66.0426 106.803 67.1601 107.552 68.9484C108.309 70.7554 108.782 73.2341 109.062 76.6109C109.342 79.9821 109.427 84.2098 109.427 89.4964V89.9964H109.927H121.975C119.799 112.304 113.503 125.231 103.714 132.617C93.825 140.08 80.2604 141.977 63.4101 141.977C53.3448 141.977 44.6635 136.275 38.4781 127.417C32.2918 118.558 28.6348 106.58 28.6348 94.154V33.6218C29.21 25.3347 32.7211 20.3799 36.6217 17.486C40.5471 14.5737 44.8972 13.7274 47.1292 13.7274C51.8567 13.7274 55.2618 16.2066 58.1085 20.0447C60.6933 23.5297 62.7708 28.0712 64.924 32.778C65.1552 33.2833 65.3872 33.7906 65.6209 34.2987C68.0162 39.5073 70.5748 44.7883 74.0639 48.7625C77.5722 52.7585 82.0378 55.4521 88.2191 55.4521C92.6815 55.4521 95.3838 52.4124 96.946 48.4397C98.506 44.4727 98.9916 39.4509 98.9916 35.1571C98.9916 22.0973 95.6866 10.1563 92.325 4.81033L92.1159 4.47788L91.7434 4.60221L90.5805 4.99034Z" stroke="#002DFF"/>
</symbol><symbol id="smallN" viewBox="0 0 214 146">
<path opacity="0.2" d="M23.1758 1.9612L22.8077 1.8387L22.5976 2.16491C20.9373 4.74299 19.3041 8.97396 18.0854 14.1109C16.8643 19.2573 16.0509 25.3483 16.0509 31.6658C16.0509 35.8168 16.5464 40.6871 18.0851 44.5386C19.6257 48.3948 22.2749 51.3537 26.6108 51.3537C30.3048 51.3537 33.5676 48.7958 36.7562 45.1886C38.8802 42.7858 41.0344 39.8395 43.3039 36.7356C44.4485 35.1702 45.6224 33.5646 46.8366 31.9685C54.1332 22.3763 62.9821 12.9779 76.3713 12.9779C76.9812 12.9779 78.0225 13.0637 79.4012 13.1774C79.7864 13.2091 80.1979 13.2431 80.6338 13.2779C73.1826 28.7268 62.0627 49.8545 49.4264 67.0557C43.0174 75.7799 36.2328 83.4739 29.3548 88.9044C22.4711 94.3393 15.5485 97.4644 8.84916 97.1584L8.39897 97.1378L8.33191 97.5835L1.50557 142.953L1.41914 143.527H2C10.3728 143.527 17.9067 138.943 24.9305 131.272C31.9546 123.6 38.5247 112.781 44.9751 100.172C51.3693 87.6727 57.6626 73.3806 64.1714 58.5989L64.3494 58.1946C70.8774 43.3698 77.6263 28.0614 84.9246 13.552C91.2596 14.2787 99.8864 15.6564 107.163 17.9754C110.869 19.1568 114.198 20.574 116.69 22.2565C119.19 23.9436 120.777 25.8482 121.148 27.9846C121.847 32.1779 121.148 37.8057 118.502 42.9121C115.37 48.902 109.633 54.1134 102.719 59.1036C98.3028 62.2906 93.4466 65.3607 88.5154 68.4782C85.7175 70.247 82.8954 72.0311 80.1158 73.8605C64.8472 83.9099 50.9012 95.2972 50.9012 112.542C50.9012 124.137 57.1751 132.39 64.9047 137.723C72.6195 143.046 81.8346 145.5 87.8683 145.5C107.536 145.5 121.141 129.701 127.254 121.266C131.474 115.558 135.536 106.546 139.66 96.0731C141.903 90.3788 144.177 84.2162 146.51 77.8958C148.465 72.6005 150.46 67.1943 152.512 61.86C157.023 50.13 161.829 38.6874 167.149 29.298C172.476 19.895 178.278 12.6259 184.75 9.1535C193.299 4.64527 200.207 4.6784 208.99 4.72051C209.854 4.72466 210.737 4.72889 211.641 4.72889H212.042L212.129 4.33753L212.488 2.7236L212.624 2.11495H212H185.593C177.828 2.11495 167.257 3.28553 157.689 6.78545C148.128 10.2829 139.485 16.1388 135.727 25.5627C131.219 36.8591 128.124 49.8407 125.476 62.9348C124.487 67.8247 123.561 72.726 122.647 77.563C121.11 85.6988 119.608 93.6528 117.898 101.065C115.171 112.881 111.935 123.228 107.249 130.613C102.577 137.974 96.498 142.348 88.0479 142.348C83.8321 142.348 80.7882 140.34 78.7803 137.452C76.7611 134.548 75.7934 130.752 75.7934 127.247C75.7934 122.073 77.8851 115.791 81.2387 108.917C84.5867 102.054 89.1643 94.6562 94.0781 87.2648C97.2887 82.4352 100.635 77.6198 103.872 72.9618C105.591 70.4881 107.279 68.0589 108.9 65.6955C113.564 58.8936 117.668 52.6375 120.29 47.4942L120.29 47.4934C127.449 33.381 126.399 21.6601 120.843 13.4309C115.301 5.22443 105.343 0.591866 94.8786 0.501031L94.8774 0.501024C80.442 0.410395 70.0979 6.35379 61.1189 12.262C60.0994 12.9328 59.0992 13.6019 58.1136 14.2613C54.7472 16.5136 51.5507 18.6521 48.335 20.3551C44.1894 22.5506 40.0618 23.9928 35.5928 23.9928C31.5503 23.9928 28.1842 21.0468 26.1161 16.852C24.0527 12.6667 23.3567 7.36767 24.5779 2.92685L24.7037 2.46958L24.2537 2.31985L23.1758 1.9612Z" stroke="#002DFF"/>
</symbol><symbol id="smallO" viewBox="0 0 130 146">
<path opacity="0.2" d="M120.479 64.0224V62.6641L119.598 63.6983C117.943 65.6426 116.438 67.3663 115.01 68.9358C123.849 58.3401 129.5 45.7453 129.5 32.0623C129.5 9.88648 114.603 0.5 103.925 0.5C86.9788 0.5 68.694 11.3897 54.6689 28.4455C40.6331 45.5143 30.7987 68.8311 30.7987 93.8279C30.7987 94.4534 31.1176 95.0188 31.5733 95.5072C31.9884 95.9522 32.5522 96.3724 33.2112 96.7657C10.3158 89.6092 1.44687 64.4921 13.2098 47.4284L13.2108 47.4269C17.1999 41.5934 22.1879 38.7977 26.6449 38.7119C31.076 38.6266 35.109 41.2158 37.258 46.4372L37.3854 46.7469H37.7204H38.179H38.9168L38.6435 46.0617C35.7954 38.9207 30.513 30.614 24.5255 26.1623C21.5281 23.9338 18.2963 22.6296 15.0726 23.0005C11.833 23.3732 8.72654 25.4221 5.95991 29.6311C-0.422049 39.1383 -1.08428 53.855 3.32061 67.4533C7.69999 80.9729 17.1278 93.5163 31.1373 98.8546C32.4594 112.14 35.6393 123.744 41.2428 132.06C46.9076 140.466 55.0455 145.5 66.1592 145.5C77.1554 145.5 90.4319 137.378 101.08 124.491C111.747 111.581 119.863 93.7916 120.479 74.2739C120.593 70.9321 120.537 67.7738 120.502 65.7197C120.489 65.0091 120.479 64.4307 120.479 64.0224ZM51.818 101.481C67.6257 100.474 85.0563 93.8522 99.3892 83.4194C99.3552 83.6506 99.317 83.9161 99.2739 84.2152C98.8786 86.9597 98.0747 92.5403 96.4029 100.545C96.3736 100.676 96.3421 100.817 96.3084 100.968C95.4613 104.769 93.2103 114.869 88.6449 124.176C83.8796 133.891 76.7034 142.525 66.1592 142.525C63.0747 142.525 60.6277 141.223 58.6747 138.938C56.7077 136.636 55.2421 133.334 54.1812 129.362C52.0923 121.543 51.6135 111.297 51.818 101.481ZM60.4959 79.5788L61.1848 79.8099L61.1545 79.0839C60.775 69.9917 62.6384 56.0638 67.5348 44.8535C69.9824 39.2498 73.172 34.362 77.1829 31.0891C81.1797 27.8277 86.0011 26.1601 91.7747 26.9912L91.7782 26.9916C95.6184 27.517 98.4391 28.9737 100.437 31.3438C102.444 33.7248 103.664 37.08 104.193 41.4811C105.248 50.269 103.525 63.0169 100.108 79.9017C86.1282 90.7996 68.472 97.8577 51.8262 98.6909C51.8225 98.1593 51.8141 97.5827 51.8049 96.9599C51.7153 90.8701 51.5608 80.3672 55.1795 64.3128C59.1444 47.1218 65.5434 31.9297 73.5945 21.048C81.6506 10.1595 91.305 3.65461 101.784 3.65461C108.013 3.65461 114.42 5.90191 119.268 10.6057C124.109 15.3032 127.43 22.4845 127.43 32.4214C127.43 41.2609 124.761 49.6436 120.282 57.4263C119.949 49.4349 117.817 41.0998 113.518 34.4614C108.896 27.323 101.767 22.1486 91.7255 21.5085C79.3125 20.6787 71.0724 30.1094 66.0049 42.0339C60.9265 53.9837 58.931 68.644 59.0847 78.7532L59.0901 79.1071L59.4256 79.2197L60.4959 79.5788Z" stroke="#002DFF"/>
</symbol></svg>