<svg width="124" height="146" viewBox="0 0 124 146" fill="none" xmlns="http://www.w3.org/2000/svg">
<path opacity="0.2" d="M107.341 29.8004L107.341 29.7976C108.85 19.3136 107.132 11.9913 103.844 7.27423C100.553 2.55105 95.7278 0.5 91.172 0.5C86.3585 0.5 81.6705 1.98153 76.981 4.17232C72.9415 6.05948 68.8696 8.48881 64.6995 10.9767C64.0336 11.374 63.3652 11.7728 62.694 12.171C52.9144 17.9746 42.4993 23.7021 30.2354 23.7021C26.1953 23.7021 22.0468 22.2617 19.6167 19.2608C17.2138 16.2936 16.3907 11.6714 19.2468 5.06544L19.3521 4.82191L19.2094 4.5982L18.8572 4.04577L18.4156 3.35325L18.0032 4.0635C14.9491 9.32308 11.9476 21.2057 11.9476 34.1458C11.9476 38.3607 13.02 43.3275 15.2257 47.2575C17.4322 51.1888 20.8282 54.165 25.4803 54.165C27.8174 54.165 30.3389 53.3381 32.9677 51.9387C35.6002 50.5372 38.3731 48.5438 41.2218 46.1682C46.9175 41.4184 52.9694 35.0953 58.8671 28.8023C59.6301 27.9881 60.3904 27.1745 61.1471 26.3649C66.2501 20.9048 71.1872 15.6222 75.648 11.5399C78.2084 9.19674 80.5956 7.26437 82.7522 5.92591C84.9197 4.58072 86.7958 3.87275 88.3473 3.89386H88.3541C89.3485 3.89386 90.0112 4.11114 90.4459 4.60056C90.8952 5.10652 91.1995 6.01093 91.2003 7.6226C91.1141 10.8692 89.6875 14.3116 87.1884 17.9562C84.6899 21.6001 81.1465 25.4068 76.8904 29.372C70.4512 35.371 62.4294 41.6895 54.0106 48.3206C51.2931 50.4611 48.5342 52.6341 45.7739 54.8396C34.4791 63.8636 23.1736 73.4191 14.6913 83.4378C6.21327 93.4513 0.5 103.992 0.5 114.985C0.5 122.081 2.77581 129.704 7.68343 135.562C12.6022 141.432 20.141 145.5 30.5877 145.5C34.2428 145.5 38.1779 143.002 42.2666 138.533C46.3737 134.044 50.7224 127.472 55.2005 119.111C64.123 102.452 73.6037 78.6056 82.7325 49.7455H83.6065L58.1166 125.137L58.0494 125.335L58.1442 125.523C60.5683 130.31 64.8172 134.745 69.6954 137.982C74.5709 141.217 80.1257 143.29 85.184 143.29C91.458 143.29 97.686 140.379 103.217 135.911C108.752 131.441 113.629 125.381 117.211 119.004C120.79 112.631 123.096 105.906 123.452 100.094C123.807 94.2852 122.212 89.2849 117.854 86.5705L117.852 86.5693C115.963 85.4043 113.54 85.4144 110.933 86.1784C108.318 86.9447 105.439 88.4904 102.552 90.5221C96.7766 94.5865 90.8781 100.662 86.8825 106.603L86.658 106.937L86.936 107.228L87.6405 107.965L88.0378 108.38L88.3942 107.929C90.0583 105.823 91.2339 104.747 92.2957 104.223C93.3295 103.714 94.3106 103.7 95.6862 103.879L95.6936 103.88L95.701 103.881C96.6415 103.976 97.4375 104.558 98.0882 105.626C98.7435 106.702 99.2192 108.223 99.5058 110.067C100.078 113.748 99.8754 118.568 99.0019 123.272C98.1278 127.979 96.5926 132.511 94.5406 135.633C92.4795 138.77 90.0187 140.331 87.2578 139.547L87.2556 139.547C84.9495 138.904 83.3913 136.372 83.0632 131.272C82.7378 126.215 83.6485 118.862 86.0219 109.027C87.6335 102.556 90.6155 92.257 93.8627 81.0413C95.0459 76.9546 96.2643 72.7462 97.4645 68.5572C101.952 52.8957 106.19 37.4824 107.341 29.8004ZM65.5777 44.3218C72.2593 38.1595 79.3988 31.4558 86.6 23.6439L86.9142 23.9724C86.6102 25.0404 86.3042 26.1173 85.9961 27.2017C80.6075 46.1652 74.5617 67.4414 67.1366 84.3307C63.1933 93.3003 58.8754 100.998 54.0843 106.446C49.2935 111.893 44.0803 115.037 38.3368 115.037C34.6847 115.037 32.071 113.713 30.3956 111.442C28.7045 109.15 27.9199 105.826 28.0932 101.748L28.0932 101.747C28.7907 85.1577 36.1459 73.5278 47.0214 62.042C51.7732 57.0235 57.1861 52.0439 63.006 46.6897C63.8549 45.9088 64.7123 45.1199 65.5777 44.3218Z" stroke="#002DFF"/>
</svg>
